<svg width="170" height="100" viewBox="0 0 170 100" fill="none" xmlns="http://www.w3.org/2000/svg">
<g filter="url(#filter0_bd_14_12)">
<rect x="25" y="18" width="120" height="50" rx="10" fill="#2A3950" fill-opacity="0.3" shape-rendering="crispEdges"/>
<rect x="24.5" y="17.5" width="121" height="51" rx="10.5" stroke="white" shape-rendering="crispEdges"/>
</g>
<path d="M48.251 51.9141V54.2451H46.6826V51.9785C45.2288 51.9714 43.8753 51.6419 42.6221 50.9902V48.0146C43.0374 48.3512 43.6569 48.6628 44.4805 48.9492C45.304 49.2357 46.0381 49.4004 46.6826 49.4434V45.5332C45.0068 44.9102 43.861 44.237 43.2451 43.5137C42.6364 42.7832 42.332 41.8952 42.332 40.8496C42.332 39.7253 42.7295 38.7692 43.5244 37.9814C44.3193 37.1865 45.3721 36.7246 46.6826 36.5957V34.5977H48.251V36.5527C49.762 36.6243 50.89 36.8678 51.6348 37.2832V40.1836C50.6322 39.5749 49.5042 39.2025 48.251 39.0664V43.1377C49.8193 43.7035 50.9437 44.3516 51.624 45.082C52.3044 45.8053 52.6445 46.6826 52.6445 47.7139C52.6445 48.9027 52.265 49.8623 51.5059 50.5928C50.7467 51.3161 49.6618 51.7565 48.251 51.9141ZM46.6826 42.5146V39.1094C45.6872 39.2884 45.1895 39.8076 45.1895 40.667C45.1895 41.4046 45.6872 42.0205 46.6826 42.5146ZM48.251 46.1455V49.4004C49.2751 49.2428 49.7871 48.7308 49.7871 47.8643C49.7871 47.1624 49.2751 46.5895 48.251 46.1455ZM64.8047 49.1211V49.1855H71.0566V52H60.916V49.3574L65.3311 45.1357C66.2191 44.2835 66.8421 43.571 67.2002 42.998C67.5654 42.418 67.748 41.8092 67.748 41.1719C67.748 39.7539 66.9854 39.0449 65.46 39.0449C64.1351 39.0449 62.8675 39.5713 61.6572 40.624V37.6377C62.9964 36.7712 64.5075 36.3379 66.1904 36.3379C67.766 36.3379 68.9941 36.7354 69.875 37.5303C70.763 38.318 71.207 39.3851 71.207 40.7314C71.207 42.529 70.1292 44.3874 67.9736 46.3066L64.8047 49.1211ZM74.1611 51.6025V48.7021C75.2139 49.3467 76.3346 49.6689 77.5234 49.6689C78.4186 49.6689 79.1169 49.4577 79.6182 49.0352C80.1266 48.6055 80.3809 48.0254 80.3809 47.2949C80.3809 45.7695 79.3031 45.0068 77.1475 45.0068C76.4456 45.0068 75.597 45.0713 74.6016 45.2002V36.5957H83.1309V39.3672H77.502V42.4502C77.9531 42.4072 78.3792 42.3857 78.7803 42.3857C80.363 42.3857 81.6019 42.8011 82.4971 43.6318C83.3923 44.4626 83.8398 45.5798 83.8398 46.9834C83.8398 48.5374 83.3063 49.8086 82.2393 50.7969C81.1722 51.778 79.7256 52.2686 77.8994 52.2686C76.417 52.2686 75.1709 52.0465 74.1611 51.6025ZM91.3057 52.2686C87.639 52.2686 85.8057 49.694 85.8057 44.5449C85.8057 41.8737 86.2998 39.8398 87.2881 38.4434C88.2835 37.0397 89.723 36.3379 91.6064 36.3379C95.1872 36.3379 96.9775 38.9554 96.9775 44.1904C96.9775 46.7972 96.487 48.7952 95.5059 50.1846C94.5319 51.5739 93.1318 52.2686 91.3057 52.2686ZM91.4561 38.9268C89.988 38.9268 89.2539 40.7708 89.2539 44.459C89.2539 47.9323 89.9736 49.6689 91.4131 49.6689C92.8167 49.6689 93.5186 47.8786 93.5186 44.2979C93.5186 40.7171 92.8311 38.9268 91.4561 38.9268ZM100.651 52.2686C100.093 52.2686 99.6273 52.0967 99.2549 51.7529C98.8825 51.4092 98.6963 50.9867 98.6963 50.4854C98.6963 49.9697 98.8861 49.5472 99.2656 49.2178C99.6523 48.8883 100.132 48.7236 100.705 48.7236C101.285 48.7236 101.758 48.8919 102.123 49.2285C102.495 49.5579 102.682 49.9769 102.682 50.4854C102.682 51.0081 102.492 51.4378 102.112 51.7744C101.74 52.1038 101.253 52.2686 100.651 52.2686ZM109.933 52.2686C106.266 52.2686 104.433 49.694 104.433 44.5449C104.433 41.8737 104.927 39.8398 105.915 38.4434C106.91 37.0397 108.35 36.3379 110.233 36.3379C113.814 36.3379 115.604 38.9554 115.604 44.1904C115.604 46.7972 115.114 48.7952 114.133 50.1846C113.159 51.5739 111.759 52.2686 109.933 52.2686ZM110.083 38.9268C108.615 38.9268 107.881 40.7708 107.881 44.459C107.881 47.9323 108.601 49.6689 110.04 49.6689C111.444 49.6689 112.146 47.8786 112.146 44.2979C112.146 40.7171 111.458 38.9268 110.083 38.9268ZM122.587 52.2686C118.92 52.2686 117.087 49.694 117.087 44.5449C117.087 41.8737 117.581 39.8398 118.569 38.4434C119.565 37.0397 121.004 36.3379 122.888 36.3379C126.468 36.3379 128.259 38.9554 128.259 44.1904C128.259 46.7972 127.768 48.7952 126.787 50.1846C125.813 51.5739 124.413 52.2686 122.587 52.2686ZM122.737 38.9268C121.269 38.9268 120.535 40.7708 120.535 44.459C120.535 47.9323 121.255 49.6689 122.694 49.6689C124.098 49.6689 124.8 47.8786 124.8 44.2979C124.8 40.7171 124.112 38.9268 122.737 38.9268Z" fill="white"/>
<defs>
<filter id="filter0_bd_14_12" x="0" y="0" width="170" height="100" filterUnits="userSpaceOnUse" color-interpolation-filters="sRGB">
<feFlood flood-opacity="0" result="BackgroundImageFix"/>
<feGaussianBlur in="BackgroundImageFix" stdDeviation="5"/>
<feComposite in2="SourceAlpha" operator="in" result="effect1_backgroundBlur_14_12"/>
<feColorMatrix in="SourceAlpha" type="matrix" values="0 0 0 0 0 0 0 0 0 0 0 0 0 0 0 0 0 0 127 0" result="hardAlpha"/>
<feOffset dy="7"/>
<feGaussianBlur stdDeviation="12"/>
<feComposite in2="hardAlpha" operator="out"/>
<feColorMatrix type="matrix" values="0 0 0 0 0 0 0 0 0 0 0 0 0 0 0 0 0 0 0.25 0"/>
<feBlend mode="normal" in2="effect1_backgroundBlur_14_12" result="effect2_dropShadow_14_12"/>
<feBlend mode="normal" in="SourceGraphic" in2="effect2_dropShadow_14_12" result="shape"/>
</filter>
</defs>
</svg>
