<svg width="175" height="50" viewBox="0 0 175 50" fill="none" xmlns="http://www.w3.org/2000/svg">
<path d="M53.016 34.192C56.928 34.192 59.856 31.072 59.856 25.6C59.856 20.128 56.928 17.008 53.016 17.008C49.08 17.008 46.152 20.128 46.152 25.6C46.152 31.072 49.08 34.192 53.016 34.192ZM53.016 32.056C50.376 32.056 48.552 29.896 48.552 25.6C48.552 21.304 50.376 19.144 53.016 19.144C55.632 19.144 57.456 21.304 57.456 25.6C57.456 29.896 55.632 32.056 53.016 32.056Z" fill="#222222"/>
<g opacity="0.5">
<path d="M29.477 23.8258C29.4824 25.9098 28.9955 27.9656 28.0559 29.8258C26.9419 32.0549 25.2292 33.9298 23.1098 35.2405C20.9904 36.5512 18.5479 37.2459 16.0559 37.2469C13.9719 37.2523 11.9161 36.7654 10.0559 35.8258L1.05591 38.8258L4.05591 29.8258C3.11633 27.9656 2.62942 25.9098 2.63486 23.8258C2.63582 21.3339 3.33056 18.8914 4.64125 16.772C5.95195 14.6525 7.82684 12.9399 10.0559 11.8258C11.9161 10.8862 13.9719 10.3993 16.0559 10.4048H16.8454C20.1365 10.5863 23.2449 11.9754 25.5756 14.3061C27.9063 16.6368 29.2954 19.7453 29.477 23.0363V23.8258Z" fill="#636668"/>
</g>
<line x1="88" y1="4.37114e-08" x2="88" y2="50" stroke="#636668" stroke-width="2"/>
<path d="M165.344 31.912L170.48 26.968C172.76 24.784 173.24 23.32 173.24 21.688C173.24 18.808 170.984 17.008 167.48 17.008C164.864 17.008 162.632 17.944 161.336 19.552L162.968 20.968C164 19.72 165.464 19.144 167.264 19.144C169.616 19.144 170.84 20.2 170.84 21.928C170.84 22.984 170.504 24.04 168.728 25.768L161.888 32.368V34H173.96V31.912H165.344Z" fill="#EE1919"/>
<path d="M142.15 12.9468C141.36 12.14 140.423 11.4999 139.392 11.0632C138.36 10.6266 137.255 10.4018 136.138 10.4018C135.021 10.4018 133.916 10.6266 132.884 11.0632C131.853 11.4999 130.915 12.14 130.126 12.9468L128.488 14.6205L126.85 12.9468C125.255 11.3178 123.093 10.4027 120.838 10.4027C118.583 10.4027 116.421 11.3178 114.826 12.9468C113.232 14.5758 112.336 16.7852 112.336 19.0889C112.336 21.3926 113.232 23.602 114.826 25.231L116.464 26.9047L128.488 39.1889L140.512 26.9047L142.15 25.231C142.939 24.4246 143.566 23.467 143.993 22.4131C144.421 21.3593 144.641 20.2297 144.641 19.0889C144.641 17.9481 144.421 16.8185 143.993 15.7647C143.566 14.7108 142.939 13.7533 142.15 12.9468V12.9468Z" fill="#EE1919"/>
</svg>
