<svg width="20" height="20" viewBox="0 0 20 20" fill="none" xmlns="http://www.w3.org/2000/svg">
<path d="M10.6044 20C10.2134 20 9.82634 20 9.43534 20C9.384 19.9881 9.33661 19.9763 9.28526 19.9684C8.82318 19.9012 8.35714 19.8617 7.89901 19.7669C2.978 18.7401 -0.434327 14.0561 0.0830503 9.04026C0.29632 6.95495 1.05856 5.08291 2.45272 3.51103C4.83029 0.829361 7.82792 -0.288332 11.3745 0.134258C13.3176 0.367276 15.0396 1.16111 16.5206 2.44468C18.3255 4.00866 19.4393 5.96759 19.85 8.32146C19.9132 8.68876 19.9527 9.06395 20.0001 9.4352C20.0001 9.8262 20.0001 10.2132 20.0001 10.6042C19.9843 10.7385 19.9685 10.8728 19.9527 11.0071C19.7237 13.0924 18.9575 14.9486 17.5791 16.5363C16.0191 18.3333 14.0641 19.4431 11.7181 19.8499C11.3508 19.9131 10.9756 19.9486 10.6044 20ZM10.0199 8.90203C9.93692 8.78749 9.90138 8.7243 9.85003 8.67296C8.96536 7.78433 8.07673 6.89966 7.19206 6.01103C7.12492 5.94389 7.05382 5.8728 6.97484 5.81751C6.67468 5.59634 6.27578 5.60424 5.97957 5.83726C5.56093 6.16506 5.54909 6.71798 5.95588 7.13268C6.86425 8.045 7.77262 8.95337 8.68495 9.86174C8.73234 9.90913 8.77973 9.96443 8.83502 10.0197C8.77578 10.079 8.72839 10.1343 8.681 10.1816C7.79632 11.0703 6.9077 11.9549 6.02302 12.8436C5.95983 12.9068 5.89664 12.9739 5.84134 13.045C5.56883 13.4004 5.62018 13.8941 5.96378 14.1824C6.32318 14.4826 6.77736 14.4431 7.14861 14.0718C8.05303 13.1674 8.95746 12.263 9.86583 11.3586C9.91322 11.3112 9.96852 11.2638 10.0278 11.2085C10.087 11.2638 10.1383 11.3112 10.1897 11.3625C11.0744 12.2512 11.963 13.1358 12.8477 14.0245C12.9069 14.0837 12.9661 14.1429 13.0333 14.1943C13.527 14.5853 14.226 14.3404 14.3643 13.7282C14.4432 13.3886 14.305 13.124 14.068 12.887C13.1597 11.9826 12.2592 11.0782 11.3548 10.1698C11.3074 10.1224 11.26 10.0711 11.1928 9.99602C11.2639 9.93678 11.3271 9.89729 11.3745 9.84989C12.2631 8.96522 13.1478 8.07659 14.0364 7.19192C14.0996 7.12873 14.1628 7.06158 14.2181 6.9905C14.4511 6.68639 14.4432 6.27959 14.2063 5.97944C13.8745 5.56475 13.3255 5.5529 12.9109 5.96364C12.0025 6.86806 11.0981 7.77249 10.1976 8.68086C10.1383 8.72035 10.1028 8.78749 10.0199 8.90203Z" fill="#2A3950"/>
</svg>
