<svg width="25" height="25" viewBox="0 0 25 25" fill="none" xmlns="http://www.w3.org/2000/svg">
<path d="M0 6.6251C0.12 6.2701 0.37 6.0101 0.63 5.7501C2.39 4.0001 4.145 2.2401 5.9 0.480102C6.24 0.140102 6.62 -0.039898 7.105 0.095102C7.88 0.310102 8.19 1.2401 7.69 1.8751C7.62 1.9651 7.54 2.0451 7.46 2.1251C6.345 3.2401 5.235 4.3551 4.12 5.4651C4.055 5.5301 3.98 5.5801 3.91 5.6351C3.92 5.6601 3.925 5.6851 3.935 5.7151C4.03 5.7151 4.13 5.7151 4.225 5.7151C9.625 5.7151 15.025 5.7151 20.425 5.7151C21.515 5.7151 22.6 5.7101 23.69 5.7151C24.285 5.7151 24.705 5.9901 24.875 6.4701C25.11 7.1351 24.705 7.8351 24 7.9601C23.865 7.9851 23.725 7.9851 23.59 7.9851C17.135 7.9851 10.68 7.9851 4.225 7.9851C4.13 7.9851 4.035 7.9851 3.89 7.9851C3.98 8.0801 4.035 8.1451 4.095 8.2051C5.245 9.3551 6.395 10.5001 7.54 11.6501C8.09 12.2051 8.065 12.9751 7.485 13.4151C7.085 13.7201 6.53 13.7251 6.125 13.4201C6.02 13.3401 5.93 13.2501 5.835 13.1601C4.095 11.4201 2.35 9.6751 0.605 7.9301C0.35 7.6751 0.11 7.4201 0 7.0651C0 6.9201 0 6.7751 0 6.6251Z" fill="#2A3950"/>
<path d="M17.935 25.0001C17.71 24.8501 17.44 24.7451 17.265 24.5501C16.91 24.1551 16.93 23.5751 17.27 23.1651C17.415 22.9901 17.58 22.8351 17.74 22.6751C18.77 21.6401 19.805 20.6101 20.84 19.5751C20.9 19.5151 20.96 19.4501 21.065 19.3351C20.91 19.3351 20.81 19.3351 20.71 19.3351C14.255 19.3351 7.805 19.3351 1.35 19.3351C0.945 19.3351 0.565 19.2801 0.295 18.9451C0.17 18.7901 0.095 18.6001 0 18.4251C0 18.2801 0 18.1351 0 17.9851C0.225 17.2851 0.725 17.0551 1.435 17.0551C7.865 17.0651 14.295 17.0601 20.725 17.0601C20.82 17.0601 20.915 17.0601 21.06 17.0601C20.97 16.9601 20.915 16.9001 20.855 16.8401C19.705 15.6901 18.555 14.5451 17.41 13.3951C16.875 12.8551 16.885 12.1051 17.425 11.6601C17.84 11.3201 18.415 11.3101 18.84 11.6401C18.93 11.7101 19.01 11.7901 19.09 11.8701C20.885 13.6651 22.685 15.4651 24.48 17.2601C25.11 17.8901 25.11 18.5101 24.48 19.1401C22.73 20.8901 20.975 22.6401 19.23 24.3951C18.975 24.6501 18.72 24.8901 18.37 25.0051C18.225 25.0001 18.08 25.0001 17.935 25.0001Z" fill="#2A3950"/>
</svg>
