<svg width="171" height="176" viewBox="0 0 171 176" fill="none" xmlns="http://www.w3.org/2000/svg">
<path d="M22.3159 6.28517L79.2616 70.0368L113.888 47.6715L31.0767 0.850614C30.6596 0.641592 30.2424 0.641592 29.8252 0.850614L22.733 3.77691C21.8987 4.19495 21.4815 5.44909 22.3159 6.28517Z" fill="#F4F4F4"/>
<path d="M22.9417 3.77686C21.8987 4.1949 21.4816 5.44903 22.3159 6.28512L79.2617 70.0367L113.888 47.6714L104.501 42.2368C89.2741 57.2864 58.611 46.2082 22.9417 3.77686Z" fill="#EDEDED"/>
<path d="M112.845 174.339L90.9429 91.566L128.698 74.8442L122.232 169.949C122.232 170.367 122.023 170.785 121.606 171.203L115.348 175.593C114.305 175.802 113.054 175.384 112.845 174.339Z" fill="#F4F4F4"/>
<path d="M115.348 175.175C114.305 175.802 113.054 175.384 112.845 174.339L90.9429 91.566L128.698 74.8442L127.864 85.7134C107.005 90.1028 99.2866 121.874 115.348 175.175Z" fill="#EDEDED"/>
<path d="M18.1441 110.587C60.0711 82.369 118.894 42.0278 133.704 34.921C148.514 27.8143 166.453 30.1135 169.791 36.1752C173.128 42.4458 160.195 61.2578 149.14 66.6923C138.293 71.9179 34.4142 116.439 23.776 121.247C13.3464 126.054 6.04572 119.157 18.1441 110.587Z" fill="white"/>
<path d="M100.955 79.8608C55.2737 101.181 23.5677 117.067 12.0951 117.485C10.635 122.292 16.4755 124.591 23.9849 121.247C34.6231 116.44 138.502 71.9179 149.349 66.6924C160.196 61.4669 173.337 42.4459 170 36.1752C169.791 35.7572 169.582 35.5482 169.165 35.1301C163.95 47.6714 131.41 65.6473 100.955 79.8608Z" fill="#EDEDED"/>
<path d="M0.622366 84.0412L18.7699 111.841L34.2057 101.599L5.21137 82.16C5.00278 82.16 4.79421 81.951 4.58562 82.16L1.03951 83.2051C0.622328 83.2051 0.413773 83.6232 0.622366 84.0412Z" fill="#F4F4F4"/>
<path d="M36.2917 150.301L23.1504 119.993L40.255 112.677L40.4636 147.584C40.4636 147.793 40.4636 148.002 40.255 148.002L37.5433 150.301C36.9175 150.719 36.5003 150.51 36.2917 150.301Z" fill="#F4F4F4"/>
<path d="M158.944 55.1961C161.03 52.2698 162.49 49.3435 163.116 46.6262L158.527 49.1345C158.944 51.0157 158.944 52.8969 158.944 55.1961Z" fill="#8CD3F6"/>
<path d="M157.901 47.2533L163.325 44.3269C163.325 42.6548 163.116 41.1916 162.49 39.9375L156.232 43.2818C156.858 44.3269 157.484 45.7901 157.901 47.2533Z" fill="#8CD3F6"/>
<path d="M147.471 33.6669C147.471 33.6669 149.349 34.712 151.435 37.0113L156.024 34.503C153.729 33.8759 150.809 33.4579 147.471 33.6669Z" fill="#8CD3F6"/>
<path d="M152.895 38.4744C153.729 39.3105 154.563 40.3556 155.189 41.6097L161.447 38.2653C160.613 37.2202 159.57 36.3841 158.318 35.7571L152.895 38.4744Z" fill="#8CD3F6"/>
<path d="M106.796 52.897L108.673 56.2413L112.845 53.733L110.968 50.1797C109.508 51.0158 108.047 52.0609 106.796 52.897Z" fill="#8CD3F6"/>
<path d="M101.581 56.2412L103.458 59.5855L107.63 57.0773L105.753 53.7329C104.293 54.569 102.833 55.4051 101.581 56.2412Z" fill="#8CD3F6"/>
<path d="M60.2798 84.0412L61.3227 86.1314L65.4945 83.6232L64.243 81.533C62.9915 82.16 61.7399 82.9961 60.2798 84.0412Z" fill="#8CD3F6"/>
<path d="M65.4944 80.488L66.746 82.7872L70.9178 80.279L69.6663 77.9797C68.2061 78.6068 66.7459 79.6519 65.4944 80.488Z" fill="#8CD3F6"/>
<path d="M80.9304 70.0366L82.3905 72.7539L86.5624 70.2456L85.1023 67.3193C83.6421 68.1554 82.182 69.2005 80.9304 70.0366Z" fill="#8CD3F6"/>
<path d="M70.7095 76.9346L71.961 79.2338L76.1329 76.7255L74.6728 74.2173C73.2126 75.2624 71.961 76.0985 70.7095 76.9346Z" fill="#8CD3F6"/>
<path d="M86.1453 66.4834L87.814 69.4097L91.9858 66.9014L90.3171 63.7661C88.8569 64.8112 87.3968 65.6473 86.1453 66.4834Z" fill="#8CD3F6"/>
<path d="M91.1514 63.1391L92.8201 66.2744L96.992 63.7662L95.3233 60.6309C93.8631 61.2579 92.6115 62.303 91.1514 63.1391Z" fill="#8CD3F6"/>
<path d="M96.3662 59.7947L98.0349 62.93L102.207 60.4217L100.329 57.0774C99.0779 57.9135 97.8263 58.7496 96.3662 59.7947Z" fill="#8CD3F6"/>
<path d="M75.7158 73.5901L77.1759 76.0983L81.3476 73.5901L79.8875 70.8728C78.4274 71.7089 77.1759 72.545 75.7158 73.5901Z" fill="#8CD3F6"/>
<path d="M55.2734 87.3855L56.3164 89.2667L60.4883 86.7584L59.4454 84.8772C57.7766 85.7133 56.525 86.5494 55.2734 87.3855Z" fill="#8CD3F6"/>
<path d="M122.232 42.864L124.109 46.4173L128.281 43.9091L126.404 40.3557C125.152 40.9828 123.9 41.8189 122.232 42.864Z" fill="#8CD3F6"/>
<path d="M131.201 37.6384C130.158 38.0565 128.907 38.8926 127.655 39.7286L129.532 43.282L133.078 40.9828C133.078 40.9828 132.035 39.1016 131.201 37.6384Z" fill="#8CD3F6"/>
<path d="M117.017 46.2084L118.894 49.7618L123.066 47.2535L121.189 43.7002C119.937 44.3273 118.477 45.1633 117.017 46.2084Z" fill="#8CD3F6"/>
<path d="M50.0586 90.9389L50.893 92.6111L55.0648 90.1028L54.0219 88.4307C52.5617 89.2667 51.3102 90.1028 50.0586 90.9389Z" fill="#8CD3F6"/>
<path d="M45.4697 94.2834L46.3041 95.7465L50.0587 93.4473L49.2244 91.9841C46.7213 93.2383 45.4697 94.2834 45.4697 94.2834Z" fill="#8CD3F6"/>
<path d="M111.802 49.5527L113.679 53.1061L117.851 50.5978L115.974 47.0444C114.722 47.6715 113.262 48.5076 111.802 49.5527Z" fill="#8CD3F6"/>
<path d="M120.146 77.9795L118.269 74.6351L122.649 72.5449L124.526 76.0983C123.275 76.7254 121.815 77.3524 120.146 77.9795Z" fill="#8CD3F6"/>
<path d="M114.514 80.4878L112.637 77.1434L117.017 75.0532L118.895 78.3976C117.643 79.2337 115.974 79.8607 114.514 80.4878Z" fill="#8CD3F6"/>
<path d="M68.832 99.7178L67.7891 97.6276L72.1696 95.5374L73.4211 97.6276C71.7524 98.4637 70.2922 99.0907 68.832 99.7178Z" fill="#8CD3F6"/>
<path d="M74.6729 97.4185L73.4214 95.1193L77.8018 93.0291L79.0533 95.3283C77.5932 96.1644 76.1331 96.7914 74.6729 97.4185Z" fill="#8CD3F6"/>
<path d="M91.7775 90.1029L90.3174 87.3856L94.6977 85.2954L96.1579 88.2217C94.6978 88.8487 93.2376 89.4758 91.7775 90.1029Z" fill="#8CD3F6"/>
<path d="M80.3048 94.9104L79.0532 92.6112L83.4337 90.521L84.8939 93.0292C83.2251 93.6563 81.7649 94.2834 80.3048 94.9104Z" fill="#8CD3F6"/>
<path d="M97.4095 87.8036L95.7407 84.8773L100.121 82.7871L101.79 85.9224C100.538 86.5495 98.8697 87.1766 97.4095 87.8036Z" fill="#8CD3F6"/>
<path d="M103.25 85.2954L101.581 82.16L105.962 80.0698L107.63 83.2052C106.17 84.0412 104.71 84.6683 103.25 85.2954Z" fill="#8CD3F6"/>
<path d="M108.882 82.9961L107.213 79.8607L111.594 77.7705L113.471 81.1149C111.802 81.5329 110.342 82.369 108.882 82.9961Z" fill="#8CD3F6"/>
<path d="M86.1455 92.6109L84.6853 90.1027L89.0658 88.0125L90.5259 90.7297C89.0657 91.3568 87.6056 91.9839 86.1455 92.6109Z" fill="#8CD3F6"/>
<path d="M63.2002 102.226L62.1572 100.345L66.5376 98.2546L67.5806 100.136C66.1204 100.972 64.4517 101.599 63.2002 102.226Z" fill="#8CD3F6"/>
<path d="M137.25 70.4546L135.373 66.9012L139.753 64.811L141.631 68.3644C140.171 68.9915 138.711 69.6185 137.25 70.4546Z" fill="#8CD3F6"/>
<path d="M146.428 65.8563C145.385 66.4834 144.134 67.1104 142.674 67.7375L140.796 64.1841L144.551 62.512C144.551 62.512 145.594 64.3931 146.428 65.8563Z" fill="#8CD3F6"/>
<path d="M131.619 72.9632L129.741 69.4098L134.122 67.3196L135.999 70.873C134.539 71.5 133.079 72.3361 131.619 72.9632Z" fill="#8CD3F6"/>
<path d="M57.3595 104.525L56.5251 102.853L60.9056 100.763L61.9486 102.435C60.2799 103.271 58.8197 103.898 57.3595 104.525Z" fill="#8CD3F6"/>
<path d="M52.1448 106.616L51.519 105.152L55.4823 103.271L56.3167 104.734C53.6049 105.989 52.1448 106.616 52.1448 106.616Z" fill="#8CD3F6"/>
<path d="M125.986 75.4712L124.109 71.9179L128.49 69.8276L130.367 73.381C128.907 74.2171 127.447 74.8442 125.986 75.4712Z" fill="#8CD3F6"/>
<path d="M2.70829 82.5781L1.03951 83.2052C0.622328 83.4142 0.413773 83.8322 0.622366 84.0413L18.7699 111.841L34.2057 101.599L30.8683 99.2998C22.7332 106.616 9.17467 99.5089 2.70829 82.5781Z" fill="#EDEDED"/>
<path d="M38.5863 149.256L37.1262 150.51C36.709 150.719 36.2918 150.719 36.0832 150.301L22.9419 119.993L40.0464 112.677V116.857C29.6169 119.366 28.1567 134.624 38.5863 149.256Z" fill="#EDEDED"/>
</svg>
