<svg width="30" height="30" viewBox="0 0 30 30" fill="none" xmlns="http://www.w3.org/2000/svg">
<g opacity="0.5">
<path d="M29.477 13.8258C29.4824 15.9098 28.9955 17.9656 28.0559 19.8258C26.9419 22.0549 25.2292 23.9298 23.1098 25.2405C20.9904 26.5512 18.5479 27.2459 16.0559 27.2469C13.9719 27.2523 11.9161 26.7654 10.0559 25.8258L1.05591 28.8258L4.05591 19.8258C3.11633 17.9656 2.62942 15.9098 2.63486 13.8258C2.63582 11.3339 3.33056 8.89138 4.64125 6.77195C5.95195 4.65253 7.82684 2.93988 10.0559 1.82582C11.9161 0.886239 13.9719 0.399336 16.0559 0.404769H16.8454C20.1365 0.586335 23.2449 1.97544 25.5756 4.30613C27.9063 6.63681 29.2954 9.74527 29.477 13.0363V13.8258Z" fill="#636668"/>
</g>
</svg>
