<svg width="23" height="35" viewBox="0 0 23 35" fill="none" xmlns="http://www.w3.org/2000/svg">
<path d="M5.52889 34.9998C5.50089 34.9788 5.47989 34.9508 5.44489 34.9438C4.31789 34.5518 3.89789 33.5788 4.39489 32.5008C5.21389 30.7298 6.03289 28.9588 6.85889 27.1878C6.96389 26.9638 7.04789 26.7188 7.17389 26.5088C7.57289 25.8788 7.60789 25.1998 7.55889 24.4858C7.45389 22.8758 7.38389 21.2658 7.29989 19.6488C7.29289 19.5578 7.30689 19.4668 7.29989 19.3758C7.27889 19.0048 7.39089 18.7388 7.72689 18.4938C8.45489 17.9688 8.86089 17.1988 8.85389 16.3028C8.84689 15.4418 9.10589 14.7628 9.75689 14.1888C10.2819 13.7268 10.7159 13.1528 11.2059 12.6488C12.0739 11.7598 12.3959 10.7168 11.9969 9.52682C11.5909 8.32982 10.6879 7.71382 9.42789 7.54582C9.41389 7.41282 9.39289 7.26582 9.37189 7.06982C10.0229 7.10482 10.6529 7.13982 11.2829 7.18182C12.1089 7.23782 12.9349 7.30782 13.7679 7.35682C15.0419 7.44082 15.8959 8.39982 15.7769 9.65982C15.7419 9.99582 15.8259 10.2408 16.0499 10.4788C16.5189 10.9898 16.9529 11.5288 17.4219 12.0398C17.5479 12.1798 17.7369 12.2988 17.9189 12.3478C19.1929 12.6838 20.4739 12.9918 21.7479 13.3278C22.4409 13.5098 22.8749 14.1048 22.8259 14.7558C22.7769 15.4558 22.2799 15.9878 21.5729 16.0648C21.3769 16.0858 21.1669 16.0508 20.9709 16.0018C19.5289 15.6448 18.0799 15.3088 16.6519 14.9028C16.2389 14.7838 15.8819 14.4758 15.4899 14.2518C15.4759 14.4478 15.4479 14.7278 15.4269 15.0148C15.3149 16.6808 15.2029 18.3468 15.0909 20.0128C15.0839 20.1668 15.1049 20.3278 15.1539 20.4748C15.4969 21.5108 15.8189 22.5538 16.2039 23.5688C16.5189 24.4018 16.6379 25.2558 16.7149 26.1308C16.9039 28.4198 17.1069 30.7018 17.3099 32.9908C17.4009 33.9918 17.0369 34.5518 15.9659 34.9928C15.7629 34.9928 15.5599 34.9928 15.3499 34.9928C14.6009 34.7548 14.0689 34.2998 13.9919 33.4738C13.7959 31.3458 13.6279 29.2178 13.4319 27.0968C13.3689 26.3968 13.3339 25.6828 13.1379 25.0178C12.6689 23.4568 12.1159 21.9168 11.5909 20.3698C11.4159 19.8588 11.2549 19.7678 10.6809 19.9078C10.7719 21.7628 10.8559 23.6248 10.9679 25.4868C10.9959 25.9628 10.9259 26.4038 10.7229 26.8378C9.67289 29.0778 8.62289 31.3178 7.60789 33.5718C7.30689 34.2368 6.93589 34.7688 6.21489 34.9998C5.98389 34.9998 5.75989 34.9998 5.52889 34.9998Z" fill="#006270"/>
<path d="M1.65799 17.4649C0.985992 17.3039 0.460993 16.8839 0.222992 16.1769C-0.00800754 15.4769 0.0549925 14.7629 0.362992 14.0839C0.572993 13.6359 0.929992 13.3139 1.39199 13.1389C1.60899 13.0549 1.67899 12.9359 1.69299 12.7189C1.78399 11.2139 1.88199 9.70186 1.98699 8.19686C2.01499 7.81186 2.02199 7.41986 2.10599 7.04886C2.34399 6.01986 3.30299 5.36886 4.35299 5.48786C5.12999 5.57886 5.91399 5.65586 6.69099 5.72586C7.81099 5.83086 8.60899 6.69886 8.60199 7.81886C8.60199 8.57486 8.60199 8.57486 7.87399 8.81286C6.94999 9.12086 6.02599 9.44286 5.10199 9.74386C4.66099 9.88386 4.35299 10.1639 4.17799 10.5839C3.40799 12.4249 2.62399 14.2589 1.88199 16.1139C1.72799 16.5269 1.73499 16.9959 1.65799 17.4649Z" fill="#006270"/>
<path d="M9.0569 13.6639C9.0919 13.1249 9.1059 12.5859 9.1759 12.0539C9.1969 11.9209 9.3929 11.8089 9.5189 11.6969C9.6379 11.5849 9.7709 11.4799 9.8549 11.3189C9.4069 11.5569 8.9799 11.8369 8.5109 12.0189C7.5239 12.4039 6.9569 13.0899 6.6139 14.0909C6.2219 15.2599 5.6899 16.3799 5.1999 17.5139C4.9199 18.1579 4.2479 18.4799 3.6039 18.3119C2.9389 18.1439 2.4839 17.5489 2.5329 16.8839C2.5469 16.6879 2.6099 16.4849 2.6869 16.2959C3.3729 14.6439 4.0729 12.9919 4.7589 11.3329C4.9339 10.9129 5.2069 10.6119 5.6129 10.4089C6.5999 9.89788 7.5939 9.38688 8.5529 8.83388C9.4419 8.31588 10.1979 8.51888 10.6179 8.87588C11.2479 9.41488 11.4999 10.3809 11.2199 11.1789C11.1639 11.3259 11.0939 11.4729 11.0169 11.6059C10.9329 11.7389 10.8279 11.8649 10.7229 11.9769C10.1979 12.5509 9.6659 13.1179 9.1339 13.6919C9.1059 13.6779 9.0849 13.6709 9.0569 13.6639Z" fill="#006270"/>
<path d="M9.6731 3.1429C9.6731 1.4419 11.0241 0.0769043 12.7111 0.0769043C14.4051 0.0769043 15.7701 1.4279 15.7771 3.1219C15.7841 4.8159 14.4331 6.1809 12.7391 6.1949C11.0591 6.1949 9.6801 4.8229 9.6731 3.1429Z" fill="#006270"/>
<path d="M8.27977 12.8308C8.24477 13.4118 8.20977 13.9998 8.17477 14.5808C8.13977 15.1478 8.09077 15.7148 8.05577 16.2818C7.97877 17.4998 6.96377 18.4098 5.73877 18.3328C5.94177 17.8708 6.15177 17.4088 6.34077 16.9468C6.86577 15.7008 7.37677 14.4548 7.90877 13.2158C7.97177 13.0618 8.09077 12.9288 8.18177 12.7888C8.20977 12.8028 8.24477 12.8168 8.27977 12.8308Z" fill="#006270"/>
</svg>
