<svg width="35" height="31" viewBox="0 0 35 31" fill="none" xmlns="http://www.w3.org/2000/svg">
<path d="M0 27.61C0 23.991 0 20.379 0 16.76C0.385 16.158 0.707 16.088 1.316 16.494C1.855 16.851 2.45 16.984 3.094 16.984C6.762 16.977 10.437 16.977 14.105 16.977C14.238 16.977 14.371 16.977 14.532 16.977C14.539 17.124 14.546 17.236 14.546 17.348C14.546 17.929 14.539 18.51 14.553 19.084C14.56 19.609 14.847 19.889 15.358 19.889C16.765 19.896 18.179 19.896 19.586 19.889C20.069 19.889 20.349 19.616 20.377 19.133C20.391 18.839 20.384 18.545 20.384 18.244C20.384 17.831 20.384 17.411 20.384 16.97C20.573 16.97 20.706 16.97 20.839 16.97C24.5 16.97 28.161 16.963 31.822 16.977C32.515 16.977 33.152 16.83 33.712 16.417C33.971 16.228 34.244 16.165 34.538 16.319C34.846 16.48 34.93 16.76 34.93 17.089C34.923 20.428 34.93 23.774 34.923 27.113C34.923 27.456 34.86 27.82 34.748 28.149C34.328 29.374 33.257 30.074 31.836 30.074C22.253 30.074 12.67 30.074 3.087 30.074C2.982 30.074 2.884 30.074 2.779 30.067C1.547 30.025 0.49 29.206 0.133 28.023C0.084 27.89 0.042 27.75 0 27.61Z" fill="#006270"/>
<path d="M0 13.078C0 11.328 0 9.57801 0 7.82801C0.014 7.80701 0.035 7.79301 0.042 7.77201C0.483 6.11301 1.47 5.35001 3.192 5.35001C5.376 5.35001 7.56 5.35001 9.737 5.35001C9.87 5.35001 10.003 5.35001 10.185 5.35001C10.185 4.85301 10.178 4.39101 10.185 3.92901C10.22 2.29101 11.41 1.01001 12.992 0.996007C15.981 0.968007 18.97 0.975007 21.959 0.996007C23.233 1.00301 24.332 1.89901 24.626 3.13801C24.745 3.64201 24.717 4.17401 24.745 4.69201C24.759 4.90201 24.745 5.11201 24.745 5.34301C24.941 5.34301 25.074 5.34301 25.207 5.34301C27.433 5.34301 29.666 5.33601 31.892 5.34301C33.698 5.35001 34.923 6.58201 34.923 8.39501C34.923 9.74601 34.923 11.104 34.923 12.455C34.923 14.296 33.684 15.528 31.836 15.528C28.14 15.528 24.444 15.528 20.755 15.528C20.636 15.528 20.517 15.528 20.377 15.528C20.377 15.283 20.384 15.094 20.377 14.898C20.363 14.352 20.097 14.079 19.551 14.079C18.151 14.072 16.751 14.072 15.358 14.079C14.833 14.079 14.567 14.352 14.546 14.877C14.539 15.087 14.546 15.297 14.546 15.493C14.469 15.514 14.448 15.521 14.427 15.521C10.542 15.521 6.65 15.535 2.765 15.514C1.561 15.507 0.497 14.639 0.133 13.484C0.091 13.351 0.042 13.218 0 13.078ZM13.111 5.32201C16.037 5.32201 18.928 5.32201 21.812 5.32201C21.812 4.83201 21.812 4.37001 21.812 3.90801C18.9 3.90801 16.009 3.90801 13.111 3.90801C13.111 4.39101 13.111 4.84601 13.111 5.32201Z" fill="#006270"/>
</svg>
