<svg width="61" height="61" viewBox="0 0 61 61" fill="none" xmlns="http://www.w3.org/2000/svg">
<circle cx="30.5" cy="30.5" r="30.5" fill="#00E0C7" fill-opacity="0.2"/>
<path d="M26.0955 32.4501L34.9175 37.5909" stroke="#2A3950" stroke-width="2" stroke-linecap="round" stroke-linejoin="round"/>
<path d="M34.9046 23.4084L26.0955 28.5493" stroke="#2A3950" stroke-width="2" stroke-linecap="round" stroke-linejoin="round"/>
<path d="M38.25 25.3333C40.3901 25.3333 42.125 23.5984 42.125 21.4583C42.125 19.3182 40.3901 17.5833 38.25 17.5833C36.1099 17.5833 34.375 19.3182 34.375 21.4583C34.375 23.5984 36.1099 25.3333 38.25 25.3333Z" stroke="#2A3950" stroke-width="2" stroke-linecap="round" stroke-linejoin="round"/>
<path d="M22.75 34.375C24.8901 34.375 26.625 32.6401 26.625 30.5C26.625 28.3599 24.8901 26.625 22.75 26.625C20.6099 26.625 18.875 28.3599 18.875 30.5C18.875 32.6401 20.6099 34.375 22.75 34.375Z" stroke="#2A3950" stroke-width="2" stroke-linecap="round" stroke-linejoin="round"/>
<path d="M38.25 43.4167C40.3901 43.4167 42.125 41.6818 42.125 39.5417C42.125 37.4016 40.3901 35.6667 38.25 35.6667C36.1099 35.6667 34.375 37.4016 34.375 39.5417C34.375 41.6818 36.1099 43.4167 38.25 43.4167Z" stroke="#2A3950" stroke-width="2" stroke-linecap="round" stroke-linejoin="round"/>
</svg>
