<svg width="132" height="100" viewBox="0 0 132 100" fill="none" xmlns="http://www.w3.org/2000/svg">
<g filter="url(#filter0_bd_14_14)">
<rect x="25" y="18" width="82" height="50" rx="10" fill="#2A3950" fill-opacity="0.3" shape-rendering="crispEdges"/>
<rect x="24.5" y="17.5" width="83" height="51" rx="10.5" stroke="white" shape-rendering="crispEdges"/>
</g>
<g filter="url(#filter1_d_14_14)">
<path d="M45 33L48.2916 38.4695L54.5106 39.9098L50.3259 44.7305L50.8779 51.0902L45 48.6L39.1221 51.0902L39.6741 44.7305L35.4894 39.9098L41.7084 38.4695L45 33Z" fill="#F1E044"/>
</g>
<path d="M77.4336 48.7236H75.5859V52H72.4922V48.7236H65.7783V46.5645L72.2451 36.5957H75.5859V46.3066H77.4336V48.7236ZM72.5352 39.9902H72.4707C72.3704 40.248 72.1771 40.6491 71.8906 41.1934L68.5928 46.3066H72.4922V41.4619C72.4922 41.0322 72.5065 40.5417 72.5352 39.9902ZM80.957 52.2686C80.3984 52.2686 79.9329 52.0967 79.5605 51.7529C79.1882 51.4092 79.002 50.9867 79.002 50.4854C79.002 49.9697 79.1917 49.5472 79.5713 49.2178C79.958 48.8883 80.4378 48.7236 81.0107 48.7236C81.5908 48.7236 82.0635 48.8919 82.4287 49.2285C82.8011 49.5579 82.9873 49.9769 82.9873 50.4854C82.9873 51.0081 82.7975 51.4378 82.418 51.7744C82.0456 52.1038 81.5586 52.2686 80.957 52.2686ZM85.748 51.6025V48.7021C86.8008 49.3467 87.9215 49.6689 89.1104 49.6689C90.0055 49.6689 90.7038 49.4577 91.2051 49.0352C91.7135 48.6055 91.9678 48.0254 91.9678 47.2949C91.9678 45.7695 90.89 45.0068 88.7344 45.0068C88.0326 45.0068 87.1839 45.0713 86.1885 45.2002V36.5957H94.7178V39.3672H89.0889V42.4502C89.54 42.4072 89.9661 42.3857 90.3672 42.3857C91.9499 42.3857 93.1888 42.8011 94.084 43.6318C94.9792 44.4626 95.4268 45.5798 95.4268 46.9834C95.4268 48.5374 94.8932 49.8086 93.8262 50.7969C92.7591 51.778 91.3125 52.2686 89.4863 52.2686C88.0039 52.2686 86.7578 52.0465 85.748 51.6025Z" fill="white"/>
<defs>
<filter id="filter0_bd_14_14" x="0" y="0" width="132" height="100" filterUnits="userSpaceOnUse" color-interpolation-filters="sRGB">
<feFlood flood-opacity="0" result="BackgroundImageFix"/>
<feGaussianBlur in="BackgroundImageFix" stdDeviation="5"/>
<feComposite in2="SourceAlpha" operator="in" result="effect1_backgroundBlur_14_14"/>
<feColorMatrix in="SourceAlpha" type="matrix" values="0 0 0 0 0 0 0 0 0 0 0 0 0 0 0 0 0 0 127 0" result="hardAlpha"/>
<feOffset dy="7"/>
<feGaussianBlur stdDeviation="12"/>
<feComposite in2="hardAlpha" operator="out"/>
<feColorMatrix type="matrix" values="0 0 0 0 0 0 0 0 0 0 0 0 0 0 0 0 0 0 0.25 0"/>
<feBlend mode="normal" in2="effect1_backgroundBlur_14_14" result="effect2_dropShadow_14_14"/>
<feBlend mode="normal" in="SourceGraphic" in2="effect2_dropShadow_14_14" result="shape"/>
</filter>
<filter id="filter1_d_14_14" x="34.4895" y="33" width="21.021" height="20.0901" filterUnits="userSpaceOnUse" color-interpolation-filters="sRGB">
<feFlood flood-opacity="0" result="BackgroundImageFix"/>
<feColorMatrix in="SourceAlpha" type="matrix" values="0 0 0 0 0 0 0 0 0 0 0 0 0 0 0 0 0 0 127 0" result="hardAlpha"/>
<feOffset dy="1"/>
<feGaussianBlur stdDeviation="0.5"/>
<feComposite in2="hardAlpha" operator="out"/>
<feColorMatrix type="matrix" values="0 0 0 0 0 0 0 0 0 0 0 0 0 0 0 0 0 0 0.3 0"/>
<feBlend mode="normal" in2="BackgroundImageFix" result="effect1_dropShadow_14_14"/>
<feBlend mode="normal" in="SourceGraphic" in2="effect1_dropShadow_14_14" result="shape"/>
</filter>
</defs>
</svg>
