<svg width="104" height="120" viewBox="0 0 104 120" fill="none" xmlns="http://www.w3.org/2000/svg">
<g clip-path="url(#clip0_21_230)">
<g opacity="0.27">
<path opacity="0.27" d="M46.9958 120C21.0321 120 0 98.815 0 72.9867C0 47.0133 21.0321 25.9734 46.9958 25.9734C72.9596 25.9734 93.9916 47.0133 93.9916 72.9867C93.9916 98.815 72.8145 120 46.9958 120ZM46.9958 27.7146C22.0474 27.7146 1.74059 48.029 1.74059 72.9867C1.74059 97.9444 22.0474 118.259 46.9958 118.259C71.9442 118.259 92.2511 97.9444 92.2511 72.9867C92.2511 48.029 71.9442 27.7146 46.9958 27.7146Z" fill="white"/>
<path opacity="0.27" d="M46.9959 98.3797C32.9261 98.3797 21.6123 86.9166 21.6123 72.9867C21.6123 59.0569 33.0712 47.5938 46.9959 47.5938C61.0656 47.5938 72.3794 59.0569 72.3794 72.9867C72.3794 86.9166 61.0656 98.3797 46.9959 98.3797ZM46.9959 49.1899C33.9415 49.1899 23.2078 59.7824 23.2078 72.9867C23.2078 86.046 33.7964 96.7836 46.9959 96.7836C60.0502 96.7836 70.7839 86.1911 70.7839 72.9867C70.7839 59.7824 60.0502 49.1899 46.9959 49.1899Z" fill="white"/>
<path opacity="0.27" d="M82.2428 101.717L82.0977 100.846C79.7769 89.6735 68.173 86.4812 68.173 86.4812L67.3027 86.3361L67.7379 84.74L68.6082 84.8851C69.1884 85.0302 81.2274 88.3676 83.8383 100.556L83.9833 101.427L82.2428 101.717Z" fill="white"/>
<path opacity="0.27" d="M72.0892 111.729L71.7991 110.859C69.4783 102.007 60.3402 94.8972 60.1952 94.7521L59.615 94.3168L60.6303 93.0109L61.3556 93.5913C61.7907 93.8815 71.0738 101.137 73.5397 110.568L73.8298 111.439L72.0892 111.729Z" fill="white"/>
<path opacity="0.27" d="M60.7755 52.6723L59.1799 52.3821L59.325 51.5115C59.325 51.3664 61.7908 38.017 73.9749 35.4051L74.8452 35.26L75.1353 36.8561L74.265 37.0012C63.2413 39.3229 60.9205 51.5115 60.9205 51.6566L60.7755 52.6723Z" fill="white"/>
<path opacity="0.27" d="M70.6387 62.5393L69.1882 61.6686L69.6234 60.9431C69.9135 60.5078 75.5704 50.2055 85.1436 47.5937L86.0139 47.3035L86.449 48.8996L85.5787 49.1898C76.7308 51.6566 71.2189 61.6686 71.0739 61.8137L70.6387 62.5393Z" fill="white"/>
<path opacity="0.27" d="M21.6124 112.019L21.3223 110.423L22.1926 110.278C33.3613 108.392 34.5217 95.3325 34.5217 95.1874V94.3168L36.2623 94.4619V95.3325C36.2623 95.4776 34.9569 109.843 22.4827 111.874L21.6124 112.019Z" fill="white"/>
<path opacity="0.27" d="M9.28329 100.701L8.84814 99.1052L9.71844 98.9601C18.5664 96.9287 24.3684 85.7557 24.3684 85.6106L24.8035 84.8851L26.254 85.6106L25.8189 86.3362C25.5288 86.7715 19.7268 98.3797 10.0085 100.556L9.28329 100.701Z" fill="white"/>
<path opacity="0.27" d="M26.1089 60.798L25.3836 60.5078C24.9485 60.3627 13.7797 55.7194 11.7491 43.3857L11.604 42.5151L13.1995 42.2249L13.3446 43.0955C15.0852 54.4135 25.8188 58.9117 25.8188 58.9117L26.544 59.2019L26.1089 60.798Z" fill="white"/>
<path opacity="0.27" d="M34.9568 52.2369L34.3766 51.6565C33.9414 51.3663 24.5133 43.3857 24.0781 33.5187V32.6481H25.8187V33.5187C26.1088 42.6602 35.3919 50.3506 35.537 50.3506L36.1172 50.931L34.9568 52.2369Z" fill="white"/>
</g>
<path opacity="0.27" d="M104 4.35308C102.84 4.35308 101.824 3.33736 101.824 2.17654C101.824 1.01572 102.84 0 104 0" fill="white"/>
</g>
<defs>
<clipPath id="clip0_21_230">
<rect width="104" height="120" fill="white"/>
</clipPath>
</defs>
</svg>
