<svg width="354" height="224" viewBox="0 0 354 224" fill="none" xmlns="http://www.w3.org/2000/svg">
<g filter="url(#filter0_d_9_10172)">
<rect x="22" y="14" width="310" height="180" rx="20" fill="#2A3950"/>
<rect x="21" y="13" width="312" height="182" rx="21" stroke="white" stroke-width="2"/>
</g>
<mask id="mask0_9_10172" style="mask-type:alpha" maskUnits="userSpaceOnUse" x="22" y="14" width="310" height="180">
<rect x="22" y="14" width="310" height="180" rx="20" fill="#2A3950"/>
</mask>
<g mask="url(#mask0_9_10172)">
<path d="M284.47 224.91H67.9219C41.4141 224.91 19.8 203.296 19.8 176.788L19.8 -213.488C19.8 -239.996 41.4141 -261.61 67.9219 -261.61H284.47C310.978 -261.61 332.592 -239.996 332.592 -213.488V176.788C332.592 203.296 310.978 224.91 284.47 224.91Z" fill="#C5E5ED"/>
<path d="M458 65.8331L456.859 58.6952H430.625C422.07 58.6952 414.656 64.4055 414.371 71.5434L413.801 83.2497H396.977L394.125 148.919H417.508C426.062 148.919 433.477 154.629 433.762 161.767L434.902 185.75H458V65.8331ZM385 110.659L388.137 43.8483C388.422 36.7103 381.578 31 373.023 31H323.977C315.422 31 308.008 36.7103 307.723 43.8483L306.297 73.5421H280.062C271.508 73.5421 264.094 79.2524 263.809 86.3904L262.668 110.374H239V213.16V141.21L240.141 134.072H266.945C275.5 134.072 282.914 139.782 283.199 146.92L283.77 158.626H300.594L304.301 238H314.852L309.434 119.225C309.148 112.087 315.992 106.377 324.547 106.377H373.309C377.871 106.377 382.148 108.09 385 110.659Z" fill="#9EC7D9"/>
<path d="M20 65.8331L21.1406 58.6952H47.375C55.9297 58.6952 63.3438 64.4055 63.6289 71.5434L64.1992 83.2497H81.0234L83.875 148.919H60.4922C51.9375 148.919 44.5234 154.629 44.2383 161.767L43.0977 185.75H20L20 65.8331ZM93 110.659L89.8633 43.8483C89.5781 36.7103 96.4219 31 104.977 31H154.023C162.578 31 169.992 36.7103 170.277 43.8483L171.703 73.5421H197.938C206.492 73.5421 213.906 79.2524 214.191 86.3904L215.332 110.374H239V213.16V141.21L237.859 134.072H211.055C202.5 134.072 195.086 139.782 194.801 146.92L194.23 158.626H177.406L173.699 238H163.148L168.566 119.225C168.852 112.087 162.008 106.377 153.453 106.377H104.691C100.129 106.377 95.8516 108.09 93 110.659Z" fill="#9EC7D9"/>
<path d="M17 170V150.394C23.9462 150.394 30.0753 154.07 30.0753 154.07C30.0753 154.07 32.1183 141 49.2796 141C66.4409 141 66.4409 154.887 66.4409 154.887C86.871 148.761 93 163.873 93 163.873L17 170Z" fill="#8C8C2F"/>
<path d="M334 152.193V173L227 162.809C227 162.809 232.412 150.92 243.237 155.59C243.237 155.59 264.054 138.181 294.031 139.03C324.008 139.879 318.179 161.96 318.179 161.96C318.179 161.96 323.591 153.892 334 152.193Z" fill="#8C8C2F"/>
<path d="M334 159V206.59C334 233.256 312.067 255 285.167 255H65.8329C38.9334 255 17 233.256 17 206.59V162.282L334 159Z" fill="#8C8C2F"/>
<path d="M348.965 231.364C340.274 245.463 324.962 255 307.167 255H87.8329C60.9334 255 39 233.023 39 206.07V195.703C118.871 191.971 266.197 185.751 213.64 198.191C142.46 214.777 181.36 233.437 286.475 230.12C309.236 229.705 330.342 230.12 348.965 231.364ZM356 173.311V194.459C348.551 194.874 341.102 194.874 333.239 194.874C285.648 195.288 247.161 190.727 247.161 184.922C247.161 178.702 285.648 173.726 333.239 173.311C341.102 172.896 348.965 172.896 356 173.311Z" fill="#6B6B1E"/>
<path d="M111 194C129.221 173.709 141.307 148.252 148.93 122.612C145.955 122.612 147.256 118.738 147.628 117.078C147.814 115.049 149.673 115.233 150.975 115.233C157.854 89.4078 159.714 67.0874 159.899 58.9709V58.0485C155.251 58.0485 155.623 57.6796 156.181 52.5146C156.367 50.301 158.784 50.6699 160.271 50.6699C160.271 46.7961 162.874 43.2913 166.407 42L169.01 23H171.985L173.658 42C177.005 43.4757 179.422 46.7961 179.422 50.6699C183.698 50.6699 183.327 50.6699 183.698 55.6505C183.884 58.233 180.724 57.8641 179.422 57.8641V59.1553C179.422 72.068 180.538 91.6214 185.744 115.049C189.276 115.049 188.905 115.417 189.462 120.029C189.648 121.32 188.719 122.427 187.417 122.427C193.925 148.068 204.709 173.524 222 193.816H195.784C195.784 177.214 183.141 164.67 166.965 164.67C150.603 164.67 136.844 178.505 136.844 193.816H111V194ZM155.065 146.592H180.166L174.96 122.612L171.241 104.165C171.055 103.243 170.312 102.505 169.196 102.505C168.266 102.505 167.337 103.243 167.151 104.165L163.618 122.612H161.201L155.065 146.592Z" fill="white"/>
<path d="M115 194C160.957 141.039 160.771 58 160.771 58H170.593H180.414C180.414 58 180.043 141.039 226 194H199.501C199.501 177.946 186.344 164.844 170.222 164.844C154.1 164.844 140.943 177.946 140.943 194H115ZM160.586 146.575H180.414C181.155 146.575 181.711 146.391 182.082 145.837C182.452 145.284 182.638 144.73 182.452 143.992C180.599 137.349 178.932 130.152 177.449 122.402L172.075 100.258C171.89 99.3351 170.963 98.597 170.037 98.7815C169.11 98.7815 168.184 99.5197 167.998 100.442L163.736 122.586C162.254 130.152 160.401 137.533 158.733 144.176C158.548 144.73 158.733 145.468 159.104 146.022C159.289 146.391 159.845 146.575 160.586 146.575Z" fill="#F0E7DA"/>
<path d="M218.575 185.139C220.803 188.152 223.401 191.165 226 194H199.642C199.642 191.165 199.271 188.506 198.528 186.025C201.498 192.582 214.677 192.051 218.575 185.139ZM115 194C119.084 189.57 122.796 184.785 126.137 180C126.137 180 130.406 190.278 143.214 183.013C141.729 186.38 140.801 190.101 140.801 194H115Z" fill="#CCC5BA"/>
<path d="M140 155.038C140.186 154.692 140.372 154.346 140.372 154H201.395C202.326 155.731 203.07 157.635 204 159.365H201.581C200.837 160.577 198.233 161.442 195.07 161.442C191.349 161.442 188.372 160.231 188.372 158.5V158.327L140 155.038ZM150.605 160.231C151.349 160.231 152.093 160.923 152.093 161.615C152.093 162.308 151.349 163 150.605 163C149.86 163 149.116 162.308 149.116 161.615C149.116 160.923 149.674 160.231 150.605 160.231Z" fill="#CCC5BA"/>
<path d="M161 60.1639C161 58.7213 161 58 161 58H170.907H180.813C180.813 58 180.813 59.4426 181 62.3279L177.636 61.9672C177.822 62.1475 177.822 62.5082 177.822 62.6885C177.822 63.7705 176.888 64.4918 175.953 64.4918C174.832 64.4918 174.084 63.5902 174.084 62.6885C174.084 62.3279 174.271 61.9672 174.458 61.6066L161 60.1639ZM164.364 66.1148C165.112 66.1148 165.86 66.8361 165.86 67.5574C165.86 68.2787 165.112 69 164.364 69C163.617 69 162.869 68.2787 162.869 67.5574C162.869 66.6557 163.617 66.1148 164.364 66.1148Z" fill="#CCC5BA"/>
<path d="M151 124.13C151.553 122.42 151.921 120.71 152.289 119H188.763C189.316 121.47 190.053 123.94 190.789 126.41L177.895 125.65C177.711 124.51 177.526 123.56 177.158 122.42H163.711C163.526 123.18 163.342 124.13 163.158 124.89L151 124.13ZM161.5 128.5C161.868 128.5 162.053 128.5 162.421 128.69C162.053 130.78 161.5 132.68 161.132 134.58C159.658 134.39 158.553 133.06 158.553 131.54C158.553 129.83 159.842 128.5 161.5 128.5ZM191.158 127.93C191.711 129.45 192.079 131.16 192.632 132.68C192.263 132.87 191.895 132.87 191.526 132.87C190.237 132.87 189.132 131.73 189.132 130.4C189.132 129.07 190.053 127.93 191.158 127.93ZM192.079 136.1C192.632 136.1 193 136.48 193 137.05C193 137.62 192.632 138 192.079 138C191.526 138 191.158 137.62 191.158 137.05C190.974 136.48 191.526 136.1 192.079 136.1Z" fill="#CCC5BA"/>
<path d="M136.109 154H205.891C206.632 154 207.187 153.821 207.557 153.282C207.927 152.744 208.112 152.205 207.927 151.667L207.002 148.436C206.817 147.538 205.891 147 204.966 147H137.034C136.109 147 135.368 147.538 134.998 148.436L134.073 151.667C133.888 152.205 134.073 152.923 134.443 153.282C134.998 153.641 135.553 154 136.109 154Z" fill="#F0E7DA"/>
<path d="M158.993 58H159.174H164.611H176.389H182.007C182.55 58 183.094 57.8158 183.456 57.2632C183.819 56.8947 184 56.3421 184 55.7895L183.819 52.4737C183.638 51.3684 182.913 50.6316 181.826 50.6316H179.832C179.832 46.7632 177.477 43.2632 174.034 41.9737L172.04 23H169.141L167.148 41.9737C163.705 43.4474 161.349 46.7632 161.349 50.6316H159.356C158.268 50.6316 157.544 51.3684 157.362 52.4737L157 55.7895C157 56.3421 157.181 56.8947 157.544 57.2632C157.906 57.6316 158.45 58 158.993 58Z" fill="#F0E7DA"/>
<path d="M159.243 58H159.43H162.42H164.476C165.41 58 166.158 57.2 165.971 56.2L165.784 51.8C165.784 50.8 164.85 50 163.915 50H162.794H161.486H159.43C158.308 50 157.561 50.8 157.374 52L157 55.6C157 56.2 157.187 56.8 157.561 57.2C158.121 57.6 158.682 58 159.243 58Z" fill="white"/>
<path d="M151.057 123H189.943C190.504 123 191.065 122.8 191.439 122.2C191.813 121.6 192 121 192 120.4L191.439 116.8C191.252 115.8 190.504 115 189.383 115H151.617C150.683 115 149.748 115.8 149.561 116.8L149 120.4C149 121 149 121.6 149.561 122.2C149.935 122.6 150.496 123 151.057 123Z" fill="#F0E7DA"/>
<path d="M22 135C30.1913 135.904 38.0792 140.123 38.9894 153.384C49.6078 147.055 53.2483 158.808 48.3942 163.027C48.3942 163.027 78.7324 153.685 102.093 167.247C125.453 181.11 112.104 214.562 112.104 214.562C112.104 214.562 122.116 213.055 124.846 222.699H57.7991C38.0792 223 22 207.027 22 187.438V135ZM150.331 223H133.038C131.824 217.575 131.217 211.548 134.251 210.644C139.409 209.438 142.746 217.877 142.746 217.877C142.746 217.877 145.78 206.726 151.544 209.137C154.275 210.644 152.758 216.973 150.331 223Z" fill="#4A283E"/>
<path d="M166.146 43.6688C167.562 42.6515 168.801 42.855 168.978 43.8723C169.155 44.8896 168.27 46.5173 166.854 47.3312C165.438 48.3485 164.199 48.145 164.022 47.1277C163.845 46.1104 164.73 44.4827 166.146 43.6688Z" fill="white"/>
<path d="M149.75 123H163.25C163.438 123 163.625 122.8 163.813 122.2C164 121.6 164 121 164 120.4L163.813 116.8C163.813 115.8 163.438 115 163.062 115H149.938C149.562 115 149.375 115.8 149.188 116.8L149 120.4C149 121 149 121.6 149.188 122.2C149.375 122.6 149.563 123 149.75 123Z" fill="white"/>
<path d="M134.93 154H170.07C170.442 154 170.628 153.825 170.814 153.3C171 152.775 171 152.25 171 151.725L170.628 148.575C170.442 147.525 170.07 147 169.513 147H135.302C134.744 147 134.372 147.525 134.372 148.4L134 151.55C134 152.075 134 152.775 134.186 153.125C134.372 153.65 134.558 154 134.93 154Z" fill="white"/>
<path d="M64.319 128C68.5205 128 73.1887 130.567 74.5892 133.5C75.9897 136.433 73.6555 139 69.9209 139C65.7195 139 61.0512 136.433 59.6508 133.5C57.7835 130.2 60.1176 128 64.319 128Z" fill="#8C8C2F"/>
<path d="M324.943 137.236C322.727 137.685 320.511 140.378 320.068 142.622C319.625 144.866 321.398 146.662 324.057 145.764C326.273 145.315 328.489 142.622 328.932 140.378C329.375 138.134 327.602 136.338 324.943 137.236Z" fill="#8C8C2F"/>
<path d="M88.0717 139.475C79.2791 147.965 68.0609 162.215 59.2683 183.438H59.8747C68.6673 162.518 79.8855 148.571 88.3749 140.081L88.0717 139.475Z" fill="#4A283E"/>
<path d="M67.4547 167.369C67.4547 167.369 69.577 151.906 63.21 154.028C56.8429 155.847 62.3004 166.156 67.4547 167.369Z" fill="#4A283E"/>
<path d="M69.8802 162.821C69.8802 162.821 83.8271 155.544 83.5239 162.214C83.2207 169.188 69.577 165.246 69.8802 162.821Z" fill="#4A283E"/>
<path d="M74.1251 156.757C74.1251 156.757 76.8538 143.113 70.7899 144.932C64.7261 146.752 68.0612 155.241 74.1251 156.757Z" fill="#4A283E"/>
<path d="M76.5503 153.119C76.5503 153.119 85.9493 148.268 87.162 153.422C88.3748 158.273 76.2471 157.667 76.5503 153.119Z" fill="#4A283E"/>
<path d="M81.0984 147.358C81.0984 147.358 84.1303 138.869 79.5824 138.262C75.0345 137.959 75.9441 147.055 81.0984 147.358Z" fill="#4A283E"/>
<path d="M84.7366 143.416C84.7366 143.416 93.5292 139.475 93.226 144.023C93.226 148.571 83.827 147.055 84.7366 143.416Z" fill="#4A283E"/>
<path d="M61.3907 179.497C61.3907 179.497 63.5131 164.034 57.146 166.156C50.7789 167.975 56.2364 178.284 61.3907 179.497Z" fill="#4A283E"/>
<path d="M63.5129 174.949C63.5129 174.949 77.4598 167.672 77.1566 174.342C76.5502 181.316 63.2097 177.374 63.5129 174.949Z" fill="#4A283E"/>
<path d="M8 29.6752V39H67.7852C66.7112 31.5401 51.6754 25.9453 40.2196 34.4224C39.5036 29.5056 26.6158 16.6204 8 29.6752ZM78.1671 34.4224C80.852 34.4224 83 36.4569 83 39H73.3341C73.1551 36.4569 75.4821 34.4224 78.1671 34.4224Z" fill="white"/>
<path d="M288 49H260.556C261.711 40.0348 274.422 32.5157 288 34.2509V49ZM243.8 40.9024C239.467 40.9024 236 44.3728 236 48.7108H251.6C251.6 44.662 248.133 40.9024 243.8 40.9024Z" fill="white"/>
</g>
<defs>
<filter id="filter0_d_9_10172" x="0" y="0" width="354" height="224" filterUnits="userSpaceOnUse" color-interpolation-filters="sRGB">
<feFlood flood-opacity="0" result="BackgroundImageFix"/>
<feColorMatrix in="SourceAlpha" type="matrix" values="0 0 0 0 0 0 0 0 0 0 0 0 0 0 0 0 0 0 127 0" result="hardAlpha"/>
<feOffset dy="8"/>
<feGaussianBlur stdDeviation="10"/>
<feComposite in2="hardAlpha" operator="out"/>
<feColorMatrix type="matrix" values="0 0 0 0 0 0 0 0 0 0 0 0 0 0 0 0 0 0 0.15 0"/>
<feBlend mode="normal" in2="BackgroundImageFix" result="effect1_dropShadow_9_10172"/>
<feBlend mode="normal" in="SourceGraphic" in2="effect1_dropShadow_9_10172" result="shape"/>
</filter>
</defs>
</svg>
