<svg width="383" height="291" viewBox="0 0 383 291" fill="none" xmlns="http://www.w3.org/2000/svg">
<g filter="url(#filter0_d_9_10161)">
<rect x="18.4949" y="90.7288" width="310" height="180" rx="20" transform="rotate(-15 18.4949 90.7288)" fill="#2A3950"/>
<rect x="17.2701" y="90.0217" width="312" height="182" rx="21" transform="rotate(-15 17.2701 90.0217)" stroke="white" stroke-width="2"/>
</g>
<mask id="mask0_9_10161" style="mask-type:alpha" maskUnits="userSpaceOnUse" x="22" y="14" width="339" height="247">
<rect x="18.4949" y="90.7288" width="310" height="180" rx="20" transform="rotate(-15 18.4949 90.7288)" fill="#2A3950"/>
</mask>
<g mask="url(#mask0_9_10161)">
<path d="M32.7073 -32.8608L243.153 -89.2495C268.914 -96.1521 295.547 -80.7754 302.449 -55.0146L358.838 155.431C365.741 181.192 350.364 207.825 324.603 214.727L114.158 271.116C88.2907 277.622 61.6576 262.246 54.755 236.485L-1.52752 26.4357C-8.4301 0.674967 6.94657 -25.9582 32.7073 -32.8608Z" fill="#FFB291"/>
<path d="M325.947 34.2635L358.336 155.141C365.238 180.902 349.862 207.535 324.101 214.437L114.052 270.72C88.2908 277.622 61.6577 262.246 54.7551 236.485L28.7377 139.387C58.5109 128.436 97.0184 127.887 145.889 151.748C185.028 170.995 209.53 172.075 226.409 163.73L193.595 41.2673L187.254 42.9663L183.218 27.9062L189.559 26.2071L190.98 -1.78369C190.845 -3.87149 192.508 -5.59141 194.093 -6.01618C196.075 -6.54715 197.979 -5.78297 198.906 -3.90757L214.131 19.6231L220.076 18.0302L214.448 -2.97469L208.107 -1.2756L204.071 -16.3357L210.412 -18.0348L212.625 -46.238C212.491 -48.3258 214.154 -50.0457 215.739 -50.4705C217.72 -51.0015 219.624 -50.2373 220.552 -48.3619L235.777 -24.8312L243.307 -26.8489L247.342 -11.7888L239.812 -9.77107L268.272 96.4425C273.911 82.613 280.45 68.9674 289.317 57.6713L275.936 7.73504L269.991 9.32794L265.956 -5.73218L272.297 -7.43127L273.717 -35.4221C273.583 -37.5099 275.246 -39.2298 276.831 -39.6546C278.813 -40.1855 280.716 -39.4214 281.644 -37.546L296.869 -14.0153L304.399 -16.0329L308.434 -0.972815L300.904 1.04485L311.205 39.4878C316.145 37.3147 320.795 35.644 325.947 34.2635ZM247.95 142.666C249.401 140.153 250.851 137.641 252.302 135.128L224.904 32.878L218.959 34.4709L247.95 142.666Z" fill="#FF9378"/>
<path d="M350.264 125.02L358.335 155.141C365.238 180.901 349.861 207.535 324.1 214.437L234.532 238.437C235.579 229.661 241.615 215.725 270.787 210.457C270.787 210.457 253.121 201.598 260.75 193.607C267.876 185.326 276.532 197.024 276.532 197.024C276.532 197.024 269.404 181.518 273.813 177.363C278.328 173.605 281.444 193.159 281.444 193.159C281.444 193.159 289.855 154.8 330.181 149.941C329.389 150.154 329.288 132.34 350.264 125.02Z" fill="#8C8C2F"/>
<path d="M356.743 149.196L358.442 155.537C360.247 162.275 360.467 169.437 359.286 176.125C354.792 175.205 350.85 171.589 349.469 166.437C347.954 159.197 350.827 152.481 356.743 149.196ZM358.366 180.619C353.761 196.72 341.539 209.765 324.101 214.437L278.524 226.65C279.947 222.446 283.166 218.609 287.42 217.045C288.609 216.726 289.798 216.408 291.093 216.486C288.961 202.19 297.771 187.511 311.826 182.895C322.711 179.129 334.212 182.419 341.12 190.762C343.335 186.346 346.661 182.906 351.417 181.632C354.085 180.492 356.172 180.358 358.366 180.619Z" fill="#6B6B1E"/>
<path d="M119.686 209.317C122.461 208.573 125.37 209.918 126.799 212.083C125.398 211.609 124.103 211.531 122.914 211.85C119.347 212.806 116.92 216.429 117.479 220.103C115.894 220.527 115.024 222.035 115.448 223.62L125.544 267.64L123.166 268.277L112.617 220.981C112.192 219.395 113.063 217.888 114.648 217.463C113.692 213.896 116.12 210.272 119.686 209.317ZM130.636 215.303C131.138 215.593 131.244 215.989 131.457 216.782L131.563 217.178L131.166 217.285C130.954 216.492 130.742 215.699 130.636 215.303ZM175.306 196.537C178.08 195.794 180.989 197.138 182.419 199.304C181.017 198.83 179.722 198.752 178.533 199.071C174.966 200.026 172.539 203.65 173.099 207.323C171.513 207.748 170.643 209.256 171.068 210.841L180.633 252.879L178.255 253.516L167.84 208.307C167.415 206.722 168.286 205.215 169.871 204.79C169.312 201.117 171.739 197.493 175.306 196.537ZM186.255 202.524C186.757 202.814 186.864 203.21 187.076 204.003L187.182 204.399L186.786 204.505C186.573 203.713 186.467 203.316 186.255 202.524ZM92.0218 215.455C94.7961 214.712 97.7049 216.056 99.1347 218.222C97.7334 217.747 96.4382 217.67 95.2493 217.988C91.6824 218.944 89.2552 222.568 89.8146 226.241C88.2294 226.666 87.359 228.173 87.7838 229.759L97.455 272.193C96.5562 272.009 95.6573 271.825 94.8647 272.038L84.5563 227.225C84.1315 225.64 85.0019 224.132 86.5872 223.708C85.6314 220.141 88.0586 216.517 92.0218 215.455ZM102.575 221.548C103.077 221.838 103.183 222.234 103.396 223.027L103.502 223.423L103.106 223.529C103.289 222.63 103.183 222.234 102.575 221.548ZM147.747 203.072C150.522 202.329 153.43 203.673 154.86 205.839C153.459 205.365 152.164 205.287 150.975 205.605C147.408 206.561 144.981 210.185 145.54 213.858C143.955 214.283 143.085 215.79 143.509 217.376L153.393 260.603L150.619 261.346L139.886 214.948C139.461 213.363 140.331 211.856 141.916 211.431C141.357 207.758 143.678 203.738 147.747 203.072ZM158.194 208.768C158.696 209.058 158.803 209.455 159.015 210.247L159.121 210.644L158.725 210.75C159.015 210.247 158.803 209.455 158.194 208.768Z" fill="#E37165"/>
<path d="M190.96 180.449L205.997 246.083L114.051 270.72C104.143 273.375 93.7822 272.753 84.7654 269.222L70.7895 207.552L190.96 180.449Z" fill="#FF9378"/>
<path d="M190.96 180.449L193.537 191.652L71.0024 208.344L70.8962 207.948L190.96 180.449Z" fill="#E37165"/>
<path d="M65.161 186.547L178.091 160.96L182.927 182.177L69.9967 207.764L65.161 186.547Z" fill="white"/>
<path d="M169.784 87.1509L186.018 158.835L65.9542 186.334L49.6136 114.253L169.784 87.1509Z" fill="#FFB291"/>
<path d="M169.784 87.151L171.724 95.9762L49.8259 115.046L49.6135 114.253L169.784 87.151Z" fill="#FF9378"/>
<path d="M136.428 -2.45886L152.768 69.622L57.3824 90.9328L41.0418 18.852C41.4381 18.7458 41.8345 18.6396 42.2308 18.5334L135.239 -2.14028C135.635 -2.24647 136.031 -2.35267 136.428 -2.45886Z" fill="#FFCDCC"/>
<path d="M136.428 -2.45838L138.261 5.97051L41.3603 20.0414L41.1479 19.2488C41.5443 19.1426 41.9406 19.0364 42.3369 18.9302L135.239 -2.1398C135.635 -2.246 136.031 -2.35219 136.428 -2.45838Z" fill="#FFBD91"/>
<path d="M119.686 209.317C123.253 208.361 127.273 210.682 127.939 214.751C129.524 214.326 131.032 215.197 131.457 216.782L141.9 263.682L122.876 268.78L112.327 221.483C111.902 219.898 112.773 218.39 114.358 217.965C113.692 213.896 116.12 210.272 119.686 209.317ZM175.306 196.537C178.873 195.582 182.893 197.903 183.558 201.972C185.144 201.547 186.651 202.418 187.076 204.003L197.278 248.419L178.255 253.516L167.84 208.307C167.415 206.722 168.286 205.215 169.871 204.79C169.312 201.117 171.739 197.493 175.306 196.537ZM92.0218 215.455C95.5887 214.499 99.6088 216.82 100.274 220.89C101.86 220.465 103.367 221.335 103.792 222.92L114.447 270.613L114.051 270.72C107.71 272.419 101.05 272.929 94.7585 271.641L84.4501 226.829C84.0253 225.244 84.8957 223.736 86.481 223.311C85.6314 220.141 88.0586 216.517 92.0218 215.455ZM147.747 203.072C151.314 202.116 155.334 204.437 156 208.507C157.585 208.082 159.093 208.952 159.518 210.538L170.038 256.143L150.619 261.346L139.886 214.948C139.461 213.363 140.331 211.856 141.916 211.431C141.357 207.758 143.678 203.738 147.747 203.072Z" fill="#4A283E"/>
<path d="M99.1473 118.397C102.714 117.441 106.734 119.762 107.4 123.831C108.985 123.407 110.493 124.277 110.917 125.862L122.316 176.329C122.741 177.915 121.871 179.422 120.285 179.847L106.704 183.061C105.119 183.486 103.611 182.616 103.187 181.03L91.7879 130.563C91.3632 128.978 92.2336 127.47 93.8188 127.046C93.1532 122.976 95.0779 119.062 99.1473 118.397ZM154.767 105.617C158.334 104.662 162.354 106.983 163.019 111.052C164.605 110.627 166.112 111.498 166.537 113.083L177.936 163.55C178.36 165.135 177.49 166.643 175.905 167.068L162.324 170.282C160.738 170.707 159.231 169.836 158.806 168.251L147.407 117.784C146.983 116.199 147.853 114.691 149.438 114.266C148.376 110.303 150.803 106.679 154.767 105.617ZM71.0864 124.641C74.6532 123.685 78.6733 126.006 79.3389 130.076C80.9242 129.651 82.4318 130.521 82.8565 132.107L94.2553 182.574C94.6801 184.159 93.8097 185.667 92.2244 186.092L78.6434 189.306C77.0581 189.731 75.5506 188.86 75.1258 187.275L63.727 136.808C63.3022 135.222 64.1726 133.715 65.7579 133.29C65.0923 129.221 67.5195 125.597 71.0864 124.641ZM126.706 111.862C130.273 110.906 134.293 113.227 134.958 117.297C136.544 116.872 138.051 117.742 138.476 119.327L149.875 169.795C150.299 171.38 149.429 172.887 147.844 173.312L134.263 176.527C132.677 176.951 131.17 176.081 130.745 174.496L119.346 124.028C118.922 122.443 119.792 120.936 121.377 120.511C120.712 116.441 123.139 112.818 126.706 111.862Z" fill="#4A283E"/>
<path d="M91.5245 20.1928C95.0914 19.237 99.1115 21.5581 99.7771 25.6274C101.362 25.2027 102.87 26.073 103.295 27.6583L114.693 78.1255C115.118 79.7108 114.248 81.2183 112.663 81.6431L98.9753 84.461C97.39 84.8858 95.8825 84.0154 95.4577 82.4302L84.0589 31.963C83.6342 30.3777 84.5046 28.8701 86.0898 28.4454C85.1341 24.8785 87.5613 21.2547 91.5245 20.1928ZM63.4636 26.4374C67.0304 25.4816 71.0505 27.8026 71.7161 31.872C73.3014 31.4472 74.809 32.3176 75.2337 33.9029L86.6325 84.3701C87.0573 85.9554 86.1869 87.4629 84.6016 87.8877L70.9144 90.7056C69.3291 91.1304 67.8216 90.26 67.3968 88.6747L55.998 38.2075C55.5732 36.6223 56.4436 35.1147 58.0289 34.69C57.4695 31.0169 59.8967 27.3931 63.4636 26.4374ZM119.189 14.0544C122.756 13.0987 126.776 15.4197 127.442 19.489C129.027 19.0643 130.535 19.9347 130.959 21.5199L142.252 71.5908C142.677 73.1761 141.806 74.6836 140.221 75.1084L126.64 78.3226C125.055 78.7474 123.547 77.877 123.122 76.2918L111.724 25.8246C111.299 24.2393 112.169 22.7318 113.754 22.307C113.195 18.6339 115.516 14.6138 119.189 14.0544Z" fill="#6E284B"/>
<path d="M99.1477 118.397C101.922 117.653 104.831 118.998 106.261 121.163C104.859 120.689 103.564 120.611 102.375 120.93C98.8083 121.886 96.3811 125.509 96.9405 129.182C95.3552 129.607 94.4849 131.115 94.9096 132.7L105.218 177.513L102.84 178.15L92.0785 130.06C91.6537 128.475 92.5241 126.968 94.1094 126.543C93.1536 122.976 95.0783 119.062 99.1477 118.397ZM110.097 124.383C110.599 124.673 110.705 125.069 110.918 125.862L111.024 126.258L110.628 126.365C110.415 125.572 110.203 124.779 110.097 124.383ZM154.767 105.617C157.541 104.874 160.45 106.218 161.88 108.384C160.479 107.91 159.183 107.832 157.995 108.151C154.428 109.106 152 112.73 152.56 116.403C150.975 116.828 150.104 118.336 150.529 119.921L160.837 164.733L158.459 165.37L147.698 117.281C147.273 115.696 148.143 114.188 149.729 113.764C148.377 110.303 150.804 106.679 154.767 105.617ZM165.716 111.604C166.219 111.894 166.325 112.29 166.537 113.083L166.643 113.479L166.247 113.585C166.035 112.793 165.822 112 165.716 111.604ZM71.0868 124.641C73.861 123.898 76.7699 125.242 78.1997 127.408C76.7983 126.934 75.5032 126.856 74.3142 127.174C70.7474 128.13 68.3202 131.754 68.8796 135.427C67.2943 135.852 66.4239 137.359 66.8487 138.945L77.1571 183.757L74.7792 184.394L64.0176 136.305C63.5928 134.72 64.4632 133.212 66.0484 132.787C65.0927 129.221 67.5199 125.597 71.0868 124.641ZM82.0359 130.628C82.5384 130.918 82.6446 131.314 82.8569 132.107L82.9631 132.503L82.5668 132.609C82.7508 131.71 82.5384 130.918 82.0359 130.628ZM126.706 111.862C129.48 111.118 132.389 112.463 133.819 114.628C132.418 114.154 131.123 114.077 129.934 114.395C126.367 115.351 123.94 118.975 124.499 122.648C122.914 123.073 122.043 124.58 122.468 126.165L132.776 170.978L130.399 171.615L119.637 123.526C119.212 121.941 120.083 120.433 121.668 120.008C120.712 116.441 123.139 112.818 126.706 111.862ZM137.655 117.848C138.158 118.138 138.264 118.535 138.476 119.327L138.582 119.724L138.186 119.83C138.37 118.931 138.264 118.535 137.655 117.848Z" fill="#C45368"/>
<path d="M91.5239 20.1929C94.2982 19.4495 97.207 20.794 98.6368 22.9595C97.2355 22.4854 95.9403 22.4077 94.7514 22.7263C91.1845 23.682 88.7573 27.3058 89.3167 30.9789C87.7315 31.4037 86.8611 32.9112 87.2858 34.4965L97.8351 81.7931L95.4572 82.4303L84.0584 31.9631C83.6336 30.3778 84.504 28.8703 86.0893 28.4455C85.1335 24.8786 87.5607 21.2548 91.5239 20.1929ZM102.473 26.1793C102.976 26.4695 103.082 26.8658 103.294 27.6584L103.4 28.0547L103.004 28.1609C102.792 27.3683 102.579 26.5757 102.473 26.1793ZM63.463 26.4375C66.2372 25.6941 69.1461 27.0386 70.5759 29.2041C69.1746 28.73 67.8794 28.6523 66.6905 28.9709C63.1236 29.9266 60.6964 33.5504 61.2558 37.2235C59.6705 37.6482 58.8001 39.1558 59.2249 40.7411L70.1705 87.9315L67.7925 88.5687L56.3938 38.1015C55.969 36.5162 56.8394 35.0087 58.4247 34.5839C57.4689 31.017 59.8961 27.3932 63.463 26.4375ZM74.4121 32.4239C74.9146 32.7141 75.0208 33.1104 75.2332 33.903L75.3394 34.2993L74.943 34.4055C75.127 33.5067 75.0208 33.1104 74.4121 32.4239ZM119.189 14.0545C121.963 13.3112 124.872 14.6556 126.301 16.8211C124.9 16.3471 123.605 16.2693 122.416 16.5879C118.849 17.5436 116.422 21.1674 116.981 24.8405C115.396 25.2653 114.526 26.7728 114.95 28.3581L125.5 75.6547L123.122 76.2919L111.723 25.8247C111.298 24.2394 112.169 22.7319 113.754 22.3071C113.194 18.634 115.515 14.6139 119.189 14.0545ZM130.138 20.041C130.64 20.3311 130.746 20.7274 130.959 21.52L131.065 21.9164L130.669 22.0226C130.853 21.1237 130.64 20.3311 130.138 20.041Z" fill="#E37165"/>
<path d="M67.4682 258.565C76.6765 267.567 88.6021 272.442 101.738 272.32C104.766 263.013 109.633 244.718 101.912 241.265C91.2814 236.468 80.0518 261.14 80.0518 261.14C80.0518 261.14 85.4351 232.087 73.885 231.784C65.7177 231.424 64.1477 244.588 67.4682 258.565Z" fill="#6B6B1E"/>
<path d="M103.033 272.398C111.312 255.737 124.225 224.667 112.222 221.087C95.5116 215.794 81.9763 257.226 81.9763 257.226C81.9763 257.226 92.2918 219.63 72.5175 215.584C62.234 213.667 61.0679 233.094 62.3859 252.28C71.7574 265.061 87.0167 272.866 103.033 272.398Z" fill="#8C8C2F"/>
<path d="M103.033 272.398C104.483 269.885 105.828 266.976 107.066 263.671C108.615 255.185 108.154 245.539 100.829 241.98C93.5036 238.421 88.1182 243.687 84.5305 249.32C82.712 253.631 81.8701 256.83 81.8701 256.83C81.8701 256.83 82.3442 255.428 82.6058 253.234C80.7874 257.544 79.9454 260.743 79.9454 260.743C79.9454 260.743 81.2802 227.678 71.6908 231.522C66.3547 233.801 63.5388 243.901 62.2797 251.884C71.8636 265.458 87.0167 272.866 103.033 272.398Z" fill="#6B6B1E"/>
<path d="M31.7409 -1.59315L130.297 -23.7535C135.556 -24.7377 141.083 -21.5464 142.068 -16.288C143.052 -11.0297 139.86 -5.50202 134.602 -4.51783L36.0455 17.6426C30.8934 19.0231 25.762 15.7255 24.2753 10.177C23.2911 4.91869 26.4825 -0.608956 31.7409 -1.59315Z" fill="white"/>
<path d="M58.3673 184.969L188.948 155.502C194.999 154.306 200.633 157.893 202.226 163.838C203.422 169.889 199.834 175.523 193.89 177.116L63.2029 206.186C57.1519 207.383 51.5181 203.795 49.9252 197.85C48.4385 192.302 52.3163 186.166 58.3673 184.969Z" fill="white"/>
<path d="M60.6956 187.318L191.276 157.852C197.327 156.655 202.961 160.243 204.554 166.187C205.75 172.238 202.163 177.872 196.218 179.465L65.6374 208.932C59.5864 210.129 53.9526 206.541 52.3597 200.596C51.1631 194.545 54.7508 188.911 60.6956 187.318Z" fill="#C45368"/>
<path d="M60.6956 187.318L87.5675 181.392C93.6185 180.196 99.2524 183.784 100.845 189.728C102.042 195.779 98.4541 201.413 92.5094 203.006L65.6374 208.932C59.5864 210.129 53.9526 206.541 52.3597 200.596C51.1631 194.545 54.7508 188.911 60.6956 187.318Z" fill="#E37165"/>
<path d="M40.3898 92.5128L164.919 64.2425C170.574 63.1521 176.208 66.7398 177.695 72.2883C178.785 77.9429 175.197 83.5767 169.649 85.0635L45.1192 113.334C39.4646 114.424 33.8308 110.836 32.344 105.288C31.2537 99.6333 34.8414 93.9995 40.3898 92.5128Z" fill="white"/>
<path d="M42.6119 94.4658L167.141 66.1955C172.796 65.1051 178.43 68.6928 179.917 74.2413C181.007 79.8959 177.419 85.5298 171.871 87.0165L47.2351 114.89C41.5804 115.981 35.9466 112.393 34.4599 106.845C33.3695 101.19 36.9572 95.5562 42.6119 94.4658Z" fill="#C45368"/>
<path d="M42.6121 94.4657L69.0878 88.6459C74.7424 87.5555 80.7726 91.037 81.863 96.6917C83.0596 102.743 79.4719 108.377 73.8172 109.467L47.7379 115.181C41.6869 116.377 36.053 112.789 34.9626 107.135C33.0796 101.692 36.5611 95.6623 42.6121 94.4657Z" fill="#E37165"/>
<path d="M35.1519 0.0413691L133.708 -22.119C138.967 -23.1032 144.494 -19.9118 145.479 -14.6535C146.463 -9.39515 143.271 -3.86751 138.013 -2.88331L39.4566 19.2771C34.1982 20.2613 28.6706 17.0699 27.6864 11.8115C26.3059 6.6594 29.4973 1.13176 35.1519 0.0413691Z" fill="#C45368"/>
<path d="M33.9627 0.359942L57.9542 -5.21902C63.2126 -6.20322 68.7402 -3.01183 69.7244 2.24651C71.2111 7.79498 67.9136 12.9263 62.3651 14.413L38.3735 19.992C33.1152 20.9762 27.5876 17.7848 26.6034 12.5264C25.1167 6.97797 28.7044 1.34414 33.9627 0.359942Z" fill="#E37165"/>
<path d="M240.071 118.016C240.071 118.016 232.434 119.638 226.943 124.507C226.943 124.507 222.073 119.016 214.409 118.946C214.409 118.946 221.04 116.744 226.964 119.829C226.964 119.829 233.383 116.835 240.071 118.016Z" fill="white"/>
<path d="M262.262 88.2828C262.262 88.2828 257.11 89.6634 252.885 92.9193C252.885 92.9193 249.339 89.1969 244.159 88.886C244.159 88.886 248.808 87.2153 252.828 89.5363C252.828 89.5363 257.372 87.4694 262.262 88.2828Z" fill="white"/>
<path d="M12.9978 61.6227C12.9978 61.6227 18.15 60.2422 23.4368 60.9495C23.4368 60.9495 24.6466 55.9528 28.9776 53.0932C28.9776 53.0932 24.1156 53.9712 21.7946 57.9913C21.7946 57.9913 16.43 58.5792 12.9978 61.6227Z" fill="white"/>
</g>
<defs>
<filter id="filter0_d_9_10161" x="0.984375" y="0.984253" width="381.045" height="289.122" filterUnits="userSpaceOnUse" color-interpolation-filters="sRGB">
<feFlood flood-opacity="0" result="BackgroundImageFix"/>
<feColorMatrix in="SourceAlpha" type="matrix" values="0 0 0 0 0 0 0 0 0 0 0 0 0 0 0 0 0 0 127 0" result="hardAlpha"/>
<feOffset dy="8"/>
<feGaussianBlur stdDeviation="10"/>
<feComposite in2="hardAlpha" operator="out"/>
<feColorMatrix type="matrix" values="0 0 0 0 0 0 0 0 0 0 0 0 0 0 0 0 0 0 0.15 0"/>
<feBlend mode="normal" in2="BackgroundImageFix" result="effect1_dropShadow_9_10161"/>
<feBlend mode="normal" in="SourceGraphic" in2="effect1_dropShadow_9_10161" result="shape"/>
</filter>
</defs>
</svg>
