<svg width="382" height="291" viewBox="0 0 382 291" fill="none" xmlns="http://www.w3.org/2000/svg">
<g filter="url(#filter0_d_9_10256)">
<rect x="64.1421" y="10.4949" width="310" height="180" rx="20" transform="rotate(15 64.1421 10.4949)" fill="#2A3950"/>
<rect x="63.435" y="9.27013" width="312" height="182" rx="21" transform="rotate(15 63.435 9.27013)" stroke="white" stroke-width="2"/>
</g>
<mask id="mask0_9_10256" style="mask-type:alpha" maskUnits="userSpaceOnUse" x="22" y="14" width="338" height="247">
<rect x="64.1421" y="10.4949" width="310" height="180" rx="20" transform="rotate(15 64.1421 10.4949)" fill="#2A3950"/>
</mask>
<g mask="url(#mask0_9_10256)">
<path d="M133.246 -62.7779L340.764 -7.17348C366.167 -0.366919 381.33 25.8958 374.523 51.2982L318.919 258.817C312.112 284.219 285.849 299.382 260.447 292.575L52.9286 236.971C27.6309 229.774 12.4681 203.511 19.2747 178.108L74.7743 -29.0192C81.5809 -54.4216 107.844 -69.5844 133.246 -62.7779Z" fill="#BAF5FF"/>
<path d="M340.1 178.206L364.499 87.1478C340.604 84.096 330.022 106.392 330.022 106.392C330.022 106.392 325.779 101.905 314.962 103.195C314.962 103.195 317.733 95.979 330.448 98.5483C331.886 94.745 334.678 92.1421 334.678 92.1421C260.363 58.4069 235.596 130.517 235.596 130.517C223.404 125.994 217.031 137.271 217.031 137.271C217.031 137.271 295.29 164.105 340.1 178.206Z" fill="#CFF8FF"/>
<path d="M57.6008 35.0729L43.3594 88.2226L184.05 125.92C184.05 125.92 183.038 121.88 179.061 113.274C175.189 104.278 158.391 93.4945 138.585 92.3762C118.78 91.2579 104.943 67.8636 99.8976 58.5534C94.4619 49.1384 70.3647 40.5873 57.6008 35.0729Z" fill="white"/>
<path d="M57.6008 35.0729L43.3594 88.2226L177.797 124.245C177.797 124.245 176.785 120.204 172.808 111.599C168.936 102.603 152.138 91.8191 132.333 90.7008C112.527 89.5824 99.4432 68.0655 93.6447 56.8779C88.9626 49.3403 70.3647 40.5873 57.6008 35.0729ZM184.05 125.92C184.05 125.92 190.338 119.647 194.065 119.808C197.896 119.578 208.602 124.96 208.602 124.96L212.523 136.901L184.05 125.92Z" fill="#6AA4D9"/>
<path d="M57.6008 35.0729L52.1556 55.3948C62.9935 58.7177 77.3486 62.983 80.6845 63.0391C84.4112 63.2 89.6806 59.1666 92.9678 56.2777C89.0673 48.9495 70.0786 40.0917 57.6008 35.0729Z" fill="#87B9E8"/>
<path d="M53.0334 236.58L260.552 292.184C285.954 298.991 312.217 283.828 319.024 258.426L343.737 166.195L43.9878 85.8778L19.2747 178.108C12.4682 203.511 27.631 229.773 53.0334 236.58Z" fill="#57DBF2"/>
<path d="M53.0335 236.58L260.552 292.185C285.954 298.991 312.217 283.828 319.024 258.426L327.82 225.598C300.261 212.769 241.186 206.573 224.563 202.957C204.422 198.398 210.703 198.406 192.217 182.981C173.732 167.556 108.682 166.462 103.42 164.214C98.1582 161.966 151.044 156.869 83.1412 144.539C60.8371 140.238 44.2419 134.954 32.6505 129.753L19.6656 178.213C12.4683 203.511 27.6311 229.774 53.0335 236.58Z" fill="white"/>
<path d="M297.621 153.839L179.598 122.214L86.9765 97.3966L43.9878 85.8778L39.5897 102.292C42.3254 103.025 45.4518 103.862 48.4735 105.091C79.5006 115.918 122.88 127.541 90.5835 110.51C48.0772 87.8113 190.638 131.037 193.764 131.874C223.542 141.11 179.764 135.663 168.326 133.017C156.888 130.371 139.56 127.822 169.072 141.175C198.48 154.919 179.065 153.905 124.296 142.581C69.5265 131.256 141.169 154.642 202.603 172.359C264.036 190.077 279.724 190.93 247.665 171.449C215.501 152.359 184.446 143.2 302.707 172.375C356.848 186.044 335.78 172.441 297.621 153.839ZM294.416 175.18C306.141 178.321 315.492 182.502 314.863 184.847C314.235 187.192 304.046 186.137 292.322 182.996C280.598 179.854 271.246 175.673 271.875 173.328C272.503 170.984 282.692 172.038 294.416 175.18ZM143.021 132.1C147.71 133.357 151.018 135.081 150.704 136.253C150.39 137.426 146.663 137.265 141.974 136.008C137.284 134.752 133.976 133.028 134.29 131.855C134.5 131.074 138.331 130.844 143.021 132.1Z" fill="#88FCFC"/>
<path d="M56.5475 109.349C56.5475 109.349 84.7342 119.834 100.841 119.123C100.841 119.123 86.806 130.861 56.5475 109.349ZM199.177 160.133L250.763 173.955C250.763 173.955 223.525 177.128 199.177 160.133ZM258.727 161.429L329.854 180.487C330.245 180.592 297.795 161.006 258.727 161.429ZM107.521 112.955L118.073 115.782C118.073 115.782 113.705 107.072 107.521 112.955Z" fill="white"/>
<path d="M53.0331 236.58L260.551 292.185C285.954 298.991 312.217 283.829 319.023 258.426L321.327 249.828C300.956 241.438 259.148 223.952 233.229 212.819C203.221 199.752 168.174 194.55 139.931 187.401C141.941 184.589 143.56 181.672 141.216 181.043C137.021 179.501 135.269 184.476 135.269 184.476C135.269 184.476 136.373 177.232 132.15 177.358C129.596 177.511 129.826 181.342 130.161 184.783C128.598 184.364 127.034 183.945 125.576 183.136C104.891 175.918 57.3325 150.189 30.7932 135.12L19.2744 178.109C12.4678 203.511 27.6306 229.774 53.0331 236.58Z" fill="#E3D24F"/>
<path d="M175.132 195.157C175.132 195.157 220.312 204.75 238.073 216.63C238.073 216.63 234.471 220.691 216.055 212.824C197.638 204.957 175.132 195.157 175.132 195.157Z" fill="#F2E585"/>
<path d="M217.172 280.561L260.161 292.08C285.564 298.886 311.826 283.724 318.633 258.321L320.937 249.723L307.391 244C313.818 252.842 311.57 258.104 291.22 254.327C254.037 247.715 230.587 264.888 217.172 280.561Z" fill="#C4A337"/>
<path d="M53.0332 236.58L120.643 254.696C123.253 251.207 129.457 249.937 135.71 251.613C141.963 253.288 146.702 257.49 147.218 261.817L156.206 264.225C170.195 226.087 148.979 227.104 113.124 199.905C99.9491 189.672 98.8889 182.687 102.7 177.844C81.5962 172.189 64.9243 165.627 51.1975 159.017C52.3493 154.718 52.4616 148.046 42.5586 147.487C44.6249 141.339 44.7652 132.999 32.783 127.694L27.8613 146.062L26.9188 149.58L19.1698 178.499C12.468 203.511 27.6308 229.774 53.0332 236.58Z" fill="#C4A337"/>
<path d="M310.523 72.3712C300.83 110.827 279.087 201.095 265.689 293.295L279.375 296.962C286.503 298.872 293.954 298.436 300.436 295.916C300.797 295.708 301.158 295.501 301.519 295.294C299.997 246.23 313.281 143.052 330.69 78.0792L310.523 72.3712Z" fill="#6E284B"/>
<path d="M266.468 293.504L279.152 296.903C286.358 298.834 293.887 298.411 300.431 295.895C300.796 295.688 301.16 295.481 301.525 295.273C300.629 270.941 303.682 233.028 308.786 193.226C300.261 213.509 293.778 227.325 294.374 199.733C295.521 168.934 276.37 251.937 266.468 293.504ZM300.586 184.624C301.739 184.933 302.511 186.665 302.053 188.372C301.596 190.079 300.061 191.193 298.908 190.884C297.755 190.575 296.983 188.843 297.441 187.136C297.898 185.429 299.433 184.315 300.586 184.624Z" fill="#4A283E"/>
<path d="M305.654 90.543C294.678 134.97 277.057 213.447 265.58 293.266L266.158 293.421C268.95 278.379 271.893 262.771 275.201 246.958C290.746 255.981 299.836 247.485 299.836 247.485C287.93 249.154 278.94 243.405 276.355 241.497C279.511 226.25 282.956 211.08 286.326 196.194C297.352 201.274 306.2 194.839 306.2 194.839C298.126 197.23 291.206 194.161 287.464 191.944C290.606 177.907 293.885 164.515 297.012 151.689C305.514 155.789 311.793 152.006 311.793 152.006C305.269 152.079 300.372 149.553 297.999 148.006C301.43 134.047 304.632 120.937 307.456 109.245C314.391 111.103 322.584 104.796 322.584 104.796C316.548 106.519 311.773 105.847 308.595 104.995C310.189 99.0456 311.342 93.5855 312.708 88.486C310.093 88.9998 307.767 89.5911 305.654 90.543Z" fill="#A63F73"/>
<path d="M237.182 107.589C237.182 107.589 241.077 77.0599 270.032 61.5218L319.72 74.8357L320.152 78.9363L269.215 96.5543L264.11 84.7643C264.11 84.7643 264.249 93.3845 264.527 98.057L237.182 107.589Z" fill="#4A283E"/>
<path d="M237.187 107.591C237.187 107.591 241.001 77.0395 270.429 61.6281L271.886 62.0185C256.536 73.8453 249.73 92.2529 246.726 104.629L237.187 107.591Z" fill="#6E284B"/>
<path d="M322.114 75.4771L348.575 105.432L359.615 97.2587C355.156 88.8434 347.457 82.2677 337.49 79.5972L322.114 75.4771ZM359.825 97.6157C358.654 99.7087 354.571 105.835 352.303 109.74L362.576 121.518C364.548 113.021 363.371 104.884 359.825 97.6157Z" fill="#4A283E"/>
<path d="M209.469 244.186C213.385 238.953 220.141 234.061 229.959 239.624C229.959 239.624 243.223 197.941 299.177 220.473C316.631 227.244 325.43 235.047 329.617 242.871C318.547 259.172 297.791 267.852 277.469 262.407L209.469 244.186ZM177.032 235.495L200.48 241.778C201.765 235.42 197.941 229.369 191.688 227.694C185.435 226.018 179.098 229.347 177.032 235.495ZM339.292 216.143C332.125 216.317 325.703 224.649 332.151 238.105C333.77 235.187 334.999 232.166 335.836 229.039L339.292 216.143Z" fill="#4A283E"/>
<path d="M322.665 24.418C322.665 24.418 315.797 35.9814 289.766 31.5197C289.376 31.4149 310.806 46.7912 322.665 24.418Z" fill="#4A283E"/>
<path d="M316.743 149.613C316.743 149.613 310.18 156.552 293.027 149.256C293.102 148.977 304.865 163.224 316.743 149.613Z" fill="#4A283E"/>
<path d="M309.219 193.149C309.219 193.149 301.369 201.504 280.35 192.703C280.35 192.703 295.132 209.658 309.219 193.149Z" fill="#4A283E"/>
<path d="M293.45 220.996C287.999 224.143 274.962 229.027 251.151 220.972C251.151 220.972 273.642 243.334 293.421 222.664L293.45 220.996Z" fill="#4A283E"/>
<path d="M243.196 176.153C251.598 190.132 261.136 212.375 265.139 242.768L264.357 242.559C260.249 212.556 250.607 190.704 242.596 176.83L243.196 176.153Z" fill="#4A283E"/>
<path d="M260.529 219.333C260.529 219.333 263.134 198.669 270.607 203.603C278.186 208.147 267.2 219.445 260.529 219.333Z" fill="#4A283E"/>
<path d="M258.582 212.528C258.582 212.528 243.118 198.332 241.205 207.034C239.578 216.232 258.525 215.864 258.582 212.528Z" fill="#4A283E"/>
<path d="M255.596 203.351C255.596 203.351 256.791 184.822 263.978 189.261C271.166 193.7 263.831 203.882 255.596 203.351Z" fill="#4A283E"/>
<path d="M253.335 197.719C253.335 197.719 242.895 188.219 239.552 194.444C236.209 200.669 252.546 203.79 253.335 197.719Z" fill="#4A283E"/>
<path d="M249.853 188.827C249.853 188.827 248.877 176.837 254.949 177.626C260.916 178.806 256.602 190.216 249.853 188.827Z" fill="#4A283E"/>
<path d="M246.42 182.881C246.42 182.881 236.448 174.764 235.268 180.73C233.697 186.593 246.441 187.494 246.42 182.881Z" fill="#4A283E"/>
<path d="M264.156 237.059C264.156 237.059 266.761 216.395 274.235 221.33C281.814 225.874 270.828 237.172 264.156 237.059Z" fill="#4A283E"/>
<path d="M262.991 230.464C262.991 230.464 247.527 216.268 245.614 224.97C243.597 234.064 262.544 233.696 262.991 230.464Z" fill="#4A283E"/>
<path d="M132.418 226.66C130.898 212.011 119.705 200.635 102.377 198.086C104.338 192.329 109.789 189.182 109.789 189.182C103.927 187.611 100.277 188.727 97.9807 191.044C103.147 163.946 56.1178 153.438 38.4193 155.398C38.4193 155.398 41.7291 133.666 22.5029 127.258L17.2671 146.798C10.4605 172.201 25.6233 198.463 51.0258 205.27L132.314 227.051L132.418 226.66Z" fill="#6B6B1E"/>
<path d="M17.7454 193.197C18.8186 211.077 29.9275 227.457 46.8855 234.514C49.8867 231.13 55.2327 228.373 64.326 230.391C74.5917 232.723 74.6889 238.613 78.4361 243.387L53.0337 236.58C51.0797 236.057 49.5164 235.638 47.6671 234.724C52.944 224.409 55.4161 205.804 17.7454 193.197ZM100.712 249.356L119.471 254.382C118.536 251.618 113.77 249.085 100.712 249.356Z" fill="#4A283E"/>
<path d="M98.725 135.116C84.4596 143.021 65.0781 157.515 46.4145 181.835L47.1961 182.044C65.755 158.115 85.0318 144.013 98.9064 136.002L98.725 135.116Z" fill="#6B6B1E"/>
<path d="M62.5168 163.949C62.5168 163.949 70.593 144.751 61.653 145.288C52.8178 145.433 56.2919 160.606 62.5168 163.949Z" fill="#6B6B1E"/>
<path d="M67.2141 158.925C67.2141 158.925 87.7044 154.363 85.0099 162.856C82.2106 171.739 65.9856 161.947 67.2141 158.925Z" fill="#6B6B1E"/>
<path d="M74.7799 152.575C74.7799 152.575 83.0094 135.931 74.565 136.181C66.1206 136.432 67.3827 148.917 74.7799 152.575Z" fill="#6B6B1E"/>
<path d="M79.1623 148.723C79.1623 148.723 92.9527 145.716 92.7358 152.779C92.6236 159.45 77.2007 154.48 79.1623 148.723Z" fill="#6B6B1E"/>
<path d="M87.0142 142.868C87.0142 142.868 93.8544 132.973 88.2017 130.62C82.4443 128.659 80.4752 140.697 87.0142 142.868Z" fill="#6B6B1E"/>
<path d="M93.0651 139.044C93.0651 139.044 105.76 137.001 103.798 142.758C102.227 148.62 90.2453 143.315 93.0651 139.044Z" fill="#6B6B1E"/>
<path d="M50.5119 177.487C50.5119 177.487 58.5881 158.289 49.6481 158.826C40.8129 158.971 44.2871 174.144 50.5119 177.487Z" fill="#6B6B1E"/>
<path d="M54.8183 172.358C54.8183 172.358 75.3086 167.796 72.614 176.289C69.4239 185.068 53.5897 175.38 54.8183 172.358Z" fill="#6B6B1E"/>
<path d="M119.179 236.712C123.659 238.75 126.548 242.037 125.529 244.277C124.51 246.518 120.183 247.034 115.703 244.995C111.223 242.957 108.334 239.67 109.353 237.43C109.981 235.085 114.699 234.674 119.179 236.712ZM106.282 233.256C107.455 233.57 108.313 235.057 108.104 235.838C107.894 236.62 106.617 236.697 105.054 236.278C103.882 235.964 103.023 234.477 103.233 233.696C103.442 232.914 104.719 232.837 106.282 233.256Z" fill="#8C8C2F"/>
</g>
<defs>
<filter id="filter0_d_9_10256" x="0.0441895" y="0.984253" width="381.045" height="289.122" filterUnits="userSpaceOnUse" color-interpolation-filters="sRGB">
<feFlood flood-opacity="0" result="BackgroundImageFix"/>
<feColorMatrix in="SourceAlpha" type="matrix" values="0 0 0 0 0 0 0 0 0 0 0 0 0 0 0 0 0 0 127 0" result="hardAlpha"/>
<feOffset dy="8"/>
<feGaussianBlur stdDeviation="10"/>
<feComposite in2="hardAlpha" operator="out"/>
<feColorMatrix type="matrix" values="0 0 0 0 0 0 0 0 0 0 0 0 0 0 0 0 0 0 0.15 0"/>
<feBlend mode="normal" in2="BackgroundImageFix" result="effect1_dropShadow_9_10256"/>
<feBlend mode="normal" in="SourceGraphic" in2="effect1_dropShadow_9_10256" result="shape"/>
</filter>
</defs>
</svg>
