<svg width="114" height="56" viewBox="0 0 114 56" fill="none" xmlns="http://www.w3.org/2000/svg">
<path opacity="0.1" d="M105.594 37.4094C102.577 37.2752 99.8948 38.7522 98.2186 40.9678C96.3413 33.1125 89.5025 27.1371 81.1215 26.6671C81.0545 12.8363 70.0587 1.4226 56.1129 0.952626C43.6421 0.549788 32.9816 8.94223 30.0985 20.6245C28.5564 19.886 26.8802 19.4832 25.0029 19.416C18.097 19.1475 12.331 24.3843 11.7946 31.2326C5.89443 31.7697 1.13407 36.6038 0.93293 42.7135C0.731788 49.2932 5.89443 54.8657 12.4651 55.0672C18.4993 55.2686 101.973 55 104.923 55.0672C109.751 55.2014 113.841 51.4416 113.975 46.6076C114.243 41.6393 110.421 37.5437 105.594 37.4094Z" fill="white"/>
</svg>
