<svg width="189" height="91" viewBox="0 0 189 91" fill="none" xmlns="http://www.w3.org/2000/svg">
<path opacity="0.1" d="M173.92 61.5599C168.958 61.3585 164.466 63.7084 161.717 67.4682C158.633 54.4431 147.302 44.5065 133.356 43.7008C133.289 20.8062 115.052 1.80567 91.9211 0.999998C71.2705 0.261462 53.5029 14.2936 48.7426 33.6298C46.1948 32.4213 43.3788 31.6828 40.3617 31.5485C28.9636 31.1457 19.3758 39.8067 18.4372 51.0861C8.58121 51.959 0.73667 60.0157 0.334386 70.1538C-0.0678983 81.0975 8.51416 90.2957 19.4429 90.6314C29.5 90.9671 167.953 90.4971 172.914 90.6985C180.96 90.9671 187.732 84.6559 188 76.5992C188.268 68.6096 181.966 61.8285 173.92 61.5599Z" fill="white"/>
</svg>
