<svg width="125" height="150" viewBox="0 0 125 150" fill="none" xmlns="http://www.w3.org/2000/svg">
<g clip-path="url(#clip0_21_215)">
<g opacity="0.5">
<path opacity="0.27" d="M23.6856 34.0474L25.6023 24.3391L41.3471 27.4841L39.4304 37.1923L81.8728 45.8068C84.8849 46.4904 86.9386 49.3619 86.254 52.5068L77.2179 97.2197C76.5333 100.228 73.6582 102.279 70.5092 101.595L5.47636 88.4685C2.46431 87.7849 0.41064 84.9134 1.0952 81.7685L10.1313 37.3291C10.679 34.3209 13.5541 32.4066 16.5662 32.9535L23.6856 34.0474Z" stroke="white" stroke-width="1.3406" stroke-miterlimit="10" stroke-linecap="square"/>
<path opacity="0.27" d="M28.279 41.7156L16.3389 39.2889L15.4107 43.8445L27.3508 46.2711L28.279 41.7156Z" fill="white"/>
<path opacity="0.27" d="M78.6509 51.9927L66.7107 49.566L65.7825 54.1216L77.7227 56.5483L78.6509 51.9927Z" fill="white"/>
<path opacity="0.27" d="M62.0208 70.1459C64.0745 60.0274 57.5027 50.0456 47.3713 47.9945C37.2399 45.9435 27.2453 52.5068 25.1917 62.6254C23.138 72.7439 29.7097 82.7256 39.8412 84.7767C49.9726 86.9645 59.9671 80.4011 62.0208 70.1459Z" stroke="white" stroke-width="1.3406" stroke-miterlimit="10" stroke-linecap="square"/>
<path opacity="0.27" d="M57.3656 69.1887C58.8716 61.5314 53.9428 54.1477 46.2758 52.5068C38.6087 51.0027 31.2155 55.9252 29.5726 63.5825C28.0666 71.2397 32.9954 78.6235 40.6624 80.2643C48.3294 81.7684 55.8596 76.8459 57.3656 69.1887Z" stroke="white" stroke-width="1.3406" stroke-miterlimit="10" stroke-linecap="square"/>
</g>
<path opacity="0.5" d="M117.607 3.69189C117.607 1.64084 119.25 0 121.303 0C123.357 0 125 1.64084 125 3.69189C125 5.74294 123.357 7.38377 121.303 7.38377C119.25 7.24704 117.607 5.6062 117.607 3.69189Z" fill="white"/>
<path opacity="0.5" d="M98.0285 150C96.9332 150 95.9749 149.043 95.9749 147.949C95.9749 146.855 96.9332 145.898 98.0285 145.898" fill="white"/>
</g>
<defs>
<clipPath id="clip0_21_215">
<rect width="125" height="150" fill="white"/>
</clipPath>
</defs>
</svg>
