<svg width="751" height="440" viewBox="0 0 751 440" fill="none" xmlns="http://www.w3.org/2000/svg">
<g clip-path="url(#clip0_6_6375)">
<path opacity="0.3" d="M750.5 201.2V364.6H446L494.9 333.8C494.9 333.8 487 324 480.8 311.7C478.3 306.6 476 301.2 474.7 295.8C472.1 284.9 473.5 274.4 484.5 268.5C496.4 262.1 507.2 263.6 515.8 267.7C515.9 267.7 516 267.8 516.1 267.8C528 273.6 535.8 284.2 536.5 285.3C535.9 283.9 529 268 524.7 248.4C524 245.3 523.4 242.1 522.9 238.9C519.4 217.5 520.2 193.9 535.4 180.5C538.9 177.4 543.2 174.9 548.4 173C550.2 172.4 552 171.8 554 171.4C558.5 170.4 562.8 169.8 566.8 169.6C572.8 169.3 578.3 169.9 583.2 171.2C590.7 173.2 597 176.7 602.4 181C623.4 198.1 629 228.2 629 228.2C629 228.2 627.5 211.4 631.6 200.8C633.7 195.3 637.2 191.5 643.1 192.3C647.7 193 651 196.2 653.5 200.7C660.2 213.1 659.8 234.5 659.8 234.5C659.8 234.5 686.1 183.6 750.5 201.2Z" fill="#277C93"/>
<path d="M750.5 267.4V364.9H567.3L567.4 364.8L567.9 364.5L596.6 346.4C596.6 346.4 572.8 316.9 590.4 307.3C607.5 298.1 620.7 316.3 621.5 317.4C620.6 315.3 595.7 257.5 632 249.3C669 240.9 676.9 283.3 676.9 283.3C676.9 283.3 674.9 260.3 685.3 261.8C695.7 263.3 695.3 287.1 695.3 287.1C695.3 287.1 711.3 256.2 750.5 267.4Z" fill="#4DA1B5"/>
<path opacity="0.3" d="M306.5 364.6H0.5V201.6C65.9 182.9 92.7 234.8 92.7 234.8C92.7 234.8 91.9 195.1 109.4 192.6C126.9 190.1 123.5 228.5 123.5 228.5C123.5 228.5 136.7 157.6 198.5 171.6C259.1 185.3 217.6 281.8 216 285.4C217.3 283.6 239.4 253.1 268 268.6C297.5 284.5 257.6 333.8 257.6 333.8L306.5 364.6Z" fill="#277C93"/>
<path d="M183.6 364.9H0.5V267.4C39.7 256.2 55.7 287.3 55.7 287.3C55.7 287.3 55.2 263.6 65.7 262C76.1 260.5 74.1 283.5 74.1 283.5C74.1 283.5 82 241.1 119 249.5C155.3 257.7 130.4 315.5 129.5 317.6C130.3 316.5 143.5 298.3 160.6 307.5C178.2 317 154.4 346.5 154.4 346.5L183.6 364.9Z" fill="#4DA1B5"/>
<path d="M372.5 199C427.452 199 472 154.452 472 99.5C472 44.5477 427.452 0 372.5 0C317.548 0 273 44.5477 273 99.5C273 154.452 317.548 199 372.5 199Z" fill="#D7F7FF"/>
<path d="M680.7 127.7C646.7 102.2 613.8 108.5 613.8 108.5L639.8 99.1001L627.7 94.0001L658.6 86.4001L647.1 79.0001L688.3 76.9001L682.7 73.1001H702.6C702.6 73.1001 700.1 60.1001 664.6 55.4001C629 50.7001 608.2 80.9001 608.2 80.9001C608.2 80.9001 611.3 48.0001 597 27.7001C582.7 7.40011 559.2 12.7001 559.2 12.7001L581.1 29.9001L571.5 32.1001L587.6 55.0001L582.5 55.9001L595.9 80.7001L590.1 80.9001L595.7 97.2001C595.7 97.2001 578 73.0001 545.1 57.4001C512.2 41.7001 493 54.7001 493 54.7001L529 71.5001L518.5 76.6001L537.5 81.3001L528.8 92.7001L560.8 93.1001L550.5 98.9001L571.1 101.6L564.8 103.6L576.6 110.5C570.4 107 526 84.6001 496.7 146.3L523.4 132.8L517.5 147.6L554 132.1L552.4 141L576.1 135.1C576.1 135.1 548.5 156.8 526.7 225.9C521.2 243.4 517.2 261 514.3 277.4C512.5 276.3 510.4 275.4 507.9 274.9C479.3 268.4 473.2 301.3 473.2 301.3C473.2 301.3 474.8 283.5 466.7 284.7C458.6 285.9 459 304.3 459 304.3C459 304.3 453.1 292.9 439.5 288.6V280.1H230.6C227.7 262.9 223.5 244.5 217.7 226.1C196 157 168.3 135.3 168.3 135.3L192 141.2L190.4 132.3L226.9 147.8L221 133L247.7 146.5C218.4 84.8001 174.1 107.1 167.8 110.7L179.6 103.8L173.3 101.8L193.9 99.1001L183.6 93.3001L215.6 92.9001L206.9 81.5001L225.9 76.8001L215.4 71.7001L251.4 54.9001C251.4 54.9001 232.2 41.9001 199.3 57.6001C166.4 73.3001 148.7 97.4001 148.7 97.4001L154.3 81.1001L148.5 80.9001L161.9 56.1001L156.8 55.2001L172.9 32.4001L163.3 30.2001L185.2 13.0001C185.2 13.0001 161.7 7.60011 147.4 28.0001C133.1 48.4001 136.2 81.3001 136.2 81.3001C136.2 81.3001 115.4 51.1001 79.8 55.8001C44.2 60.5001 41.8 73.5001 41.8 73.5001H61.7L56.1 77.3001L97.3 79.0001L85.9 86.3001L116.8 93.9001L104.7 99.0001L130.7 108.4C130.7 108.4 97.8 102.1 63.8 127.6C29.8 153.1 41.4 181.3 41.4 181.3L64 158.2V169.2L84.6 147.5V159.6L102.5 137.4L107.9 144.6L131.5 138.2C129.5 138.8 106.5 146 95 184.5C82.9 224.8 95 248.3 95 248.3L105.1 221L108.2 227.9L113.6 197.9L120.5 208.2L131.5 178.2L134.2 184L139.1 156.9L142.2 160.5L146.1 148.4C135.9 184.1 148.9 225.8 148.9 225.8L150.6 207.6L162.8 213.3L156.8 190.3L168 197L159.8 166L168.3 167.7L162 147.7C193.9 184.9 204 236.6 206 280.2H187.6V285C181.9 287 183.2 301.5 183.2 301.5C183.2 301.5 177.1 268.7 148.5 275.1C120.4 281.5 139.7 326.2 140.4 327.8C139.8 327 129.5 312.8 116.3 320C102.7 327.4 121.1 350.2 121.1 350.2L98.4 364.5H187.6V364.8H439.3V364.5H506.5C506.5 364.6 506.5 364.7 506.5 364.7H543.6C543.6 364.7 543.6 364.6 543.6 364.5H557.8L542 354.5C541.5 351.1 541 347 540.5 342.3C544.6 335 548.5 324.5 540 320C539.5 319.7 539.1 319.5 538.6 319.3C536 271.7 540.1 197 582.4 147.6L576.1 167.6L584.6 165.9L576.4 196.9L587.8 190.4L581.8 213.4L594 207.7L595.7 225.9C595.7 225.9 608.7 184.2 598.5 148.5L602.4 160.6L605.5 157L610.4 184.1L613.1 178.3L624.1 208.3L631 198L636.4 228L639.5 221.1L649.6 248.4C649.6 248.4 661.7 224.9 649.6 184.6C638 146.1 615 138.8 613 138.3L636.6 144.7L642 137.5L659.9 159.7V147.6L680.5 169.3V158.3L703.1 181.4C703.1 181.4 714.7 153.2 680.7 127.7Z" fill="#277C93"/>
<path opacity="0.1" d="M750.5 58.2V101.5H433.7C422.4 101.5 413.2 92.3 413.2 81V78.8C413.2 67.5 422.4 58.2999 433.7 58.2999H750.5V58.2Z" fill="white"/>
<path opacity="0.1" d="M293 152V154.2C293 165.6 283.8 174.8 272.5 174.8H0.5V131.5H272.5C283.8 131.4 293 140.6 293 152Z" fill="white"/>
<path d="M378 120.1C375.4 116.4 368.8 109.7 354.6 109.7V112.7C371.7 112.7 376.4 123.3 376.6 123.7H379.4C379.6 123.3 384.3 112.7 401.4 112.7V109.7C387.2 109.6 380.6 116.3 378 120.1Z" fill="#27273D"/>
<path d="M427.7 148.3C425.5 145.2 420.1 139.7 408.4 139.7V142.2C422.5 142.2 426.4 150.9 426.6 151.3H428.9C429.1 150.9 433 142.2 447.1 142.2V139.7C435.3 139.7 429.9 145.2 427.7 148.3Z" fill="#27273D"/>
<path d="M354.6 167.8C353.4 166.1 350.3 163 343.8 163V164.4C351.7 164.4 353.8 169.3 353.9 169.5H355.2C355.3 169.3 357.5 164.4 365.3 164.4V163C358.9 163 355.8 166.1 354.6 167.8Z" fill="#27273D"/>
<path opacity="0.1" d="M750.5 85.8V117.2H644.3C638.1 117.2 632.8 113.4 630.6 108.1C629.9 106.5 629.5 104.7 629.4 102.8C629.4 102.6 629.4 102.5 629.4 102.3V100.7C629.4 98.7 629.8 96.8 630.5 95.1C630.8 94.3 631.2 93.6 631.6 92.9C634.2 88.6 638.9 85.7 644.3 85.7H750.5V85.8Z" fill="white"/>
<path opacity="0.1" d="M0.5 147.1V115.7H107.7C115.9 115.7 122.6 122.4 122.6 130.6V132.2C122.6 140.4 115.9 147.1 107.7 147.1H0.5Z" fill="white"/>
<path d="M750.5 364.6H0.5V439.4H750.5V364.6Z" fill="#36364F"/>
<path d="M535.6 176.8H475.7C473.3 176.8 471.4 178.7 471.4 181.1V226.4C471.4 228.8 473.3 230.7 475.7 230.7H500.7L505.7 239.1L510.7 230.7H535.7C538.1 230.7 540 228.8 540 226.4V181.1C539.9 178.7 538 176.8 535.6 176.8Z" fill="#C33E5D"/>
<path d="M496.5 188.7C503.6 188.8 505.7 194.1 505.7 194.1C505.7 194.1 507.9 188.9 515 189C522.1 189.1 529.4 200.5 505.4 220C481.9 199.9 489.4 188.6 496.5 188.7Z" fill="#FEFEFE"/>
<path d="M750.5 364.8H567.5H439.3H187.6H183.5H0.5" stroke="#FEFEFE" stroke-miterlimit="10"/>
<path opacity="0.06" d="M750.5 411.7H0.5V439.3H750.5V411.7Z" fill="white"/>
<path opacity="0.06" d="M750.5 397.8H0.5V405.4H750.5V397.8Z" fill="white"/>
<path d="M69.8 246.3H63.5V370.2H69.8V246.3Z" fill="#FFD550"/>
<path d="M69.8 254.1H681.7" stroke="#FEFEFE" stroke-width="0.5" stroke-miterlimit="10"/>
<path d="M681.7 246.3H675.4V370.2H681.7V246.3Z" fill="#FFD550"/>
<path d="M141.8 252.9V267.4H133.3V304.1H96.8999V267.4H88.3999V252.9H107.3C107.3 257.2 110.8 260.7 115.1 260.7C119.4 260.7 122.9 257.2 122.9 252.9H141.8V252.9Z" fill="#36364F"/>
<path d="M133.4 270.8H96.8999V272.6H133.4V270.8Z" fill="#A3D5E6"/>
<path d="M133.4 273.9H96.8999V275.7H133.4V273.9Z" fill="#FEFEFE"/>
<path d="M133.4 277H96.8999V278.8H133.4V277Z" fill="#A3D5E6"/>
<path d="M659.5 256.1H647H636.5H624V266.6C630.9 266.6 636.5 272.2 636.5 279.1H647C647 272.2 652.6 266.6 659.5 266.6V256.1Z" fill="#36364F"/>
<path opacity="0.4" d="M659.5 257.8H624.1V260.4H659.5V257.8Z" fill="#FEFEFE"/>
<path d="M630.6 251H628.5V258.7H630.6V251Z" fill="#A3D5E6"/>
<path d="M655.1 251H653V258.7H655.1V251Z" fill="#A3D5E6"/>
<path d="M645.4 279C645.4 271.2 651.7 264.9 659.5 264.9" stroke="#FEFEFE" stroke-width="0.25" stroke-miterlimit="10"/>
<path d="M638.2 279C638.2 271.2 631.9 264.9 624.1 264.9" stroke="#FEFEFE" stroke-width="0.25" stroke-miterlimit="10"/>
<path d="M430 300.5H154.1V341.6H430V300.5Z" fill="#29293F"/>
<path d="M391.4 370.1C404.986 370.1 416 359.086 416 345.5C416 331.914 404.986 320.9 391.4 320.9C377.814 320.9 366.8 331.914 366.8 345.5C366.8 359.086 377.814 370.1 391.4 370.1Z" fill="#36364F"/>
<path d="M391.4 363.8C401.507 363.8 409.7 355.607 409.7 345.5C409.7 335.393 401.507 327.2 391.4 327.2C381.293 327.2 373.1 335.393 373.1 345.5C373.1 355.607 381.293 363.8 391.4 363.8Z" fill="#FEFEFE"/>
<path d="M391.4 357.4C397.972 357.4 403.3 352.072 403.3 345.5C403.3 338.928 397.972 333.6 391.4 333.6C384.828 333.6 379.5 338.928 379.5 345.5C379.5 352.072 384.828 357.4 391.4 357.4Z" fill="#A3D5E6"/>
<path d="M391.4 351.3C394.603 351.3 397.2 348.703 397.2 345.5C397.2 342.297 394.603 339.7 391.4 339.7C388.197 339.7 385.6 342.297 385.6 345.5C385.6 348.703 388.197 351.3 391.4 351.3Z" fill="#36364F"/>
<path d="M196.1 370.1C209.686 370.1 220.7 359.086 220.7 345.5C220.7 331.914 209.686 320.9 196.1 320.9C182.514 320.9 171.5 331.914 171.5 345.5C171.5 359.086 182.514 370.1 196.1 370.1Z" fill="#36364F"/>
<path d="M196.1 363.8C206.207 363.8 214.4 355.607 214.4 345.5C214.4 335.393 206.207 327.2 196.1 327.2C185.993 327.2 177.8 335.393 177.8 345.5C177.8 355.607 185.993 363.8 196.1 363.8Z" fill="#FEFEFE"/>
<path d="M196.1 357.4C202.672 357.4 208 352.072 208 345.5C208 338.928 202.672 333.6 196.1 333.6C189.528 333.6 184.2 338.928 184.2 345.5C184.2 352.072 189.528 357.4 196.1 357.4Z" fill="#A3D5E6"/>
<path d="M196.1 351.3C199.303 351.3 201.9 348.703 201.9 345.5C201.9 342.297 199.303 339.7 196.1 339.7C192.897 339.7 190.3 342.297 190.3 345.5C190.3 348.703 192.897 351.3 196.1 351.3Z" fill="#36364F"/>
<path d="M147 317H142.3C141.5 317 140.8 316.3 140.8 315.5V304.5C140.8 303.7 141.5 303 142.3 303H147V317Z" fill="#FEFEFE"/>
<path d="M448.3 270.4V341.6H426.9C426.9 335.1 421.6 329.8 415.1 329.8H374.3C366.9 329.8 359.8 332.7 354.6 338L351 341.6H227.5L213.9 322.3C212 319.5 208.8 317.9 205.4 317.9H186.7C183 317.9 179.7 319.8 177.8 322.9L166.6 341.5H143.3V310.6C143.3 301.7 144.8 293 147.8 284.6C148.8 281.7 150 278.9 151.4 276.1L154.3 270.3L171.6 235.2H439.8L448.3 270.4Z" fill="#C33E5D"/>
<path d="M280.6 280.5V337.9H261.5L280.6 280.5Z" fill="#AF3152"/>
<path d="M231.7 286.3H216.8C216.2 286.3 215.8 285.8 215.8 285.3V284.2C215.8 283.6 216.3 283.2 216.8 283.2H231.7V286.3Z" fill="#FEFEFE"/>
<path d="M448.3 270.4H154.1L171.4 235.3H439.6L448.3 270.4Z" fill="#36364F"/>
<path opacity="0.1" d="M448.3 270.4V284.7H147.7C148.7 281.8 149.9 279 151.3 276.2L154.2 270.4H448.3Z" fill="#FEFEFE"/>
<path d="M235.3 235.3H228.1V270.4H235.3V235.3Z" fill="#FEFEFE"/>
<path d="M426.3 291.2H397.6V293.2H426.3V291.2Z" fill="#36364F"/>
<path d="M426.3 294.3H397.6V296.3H426.3V294.3Z" fill="#36364F"/>
<path d="M426.3 297.4H397.6V299.4H426.3V297.4Z" fill="#36364F"/>
<path d="M426.3 300.5H397.6V302.5H426.3V300.5Z" fill="#36364F"/>
<path d="M426.3 303.6H397.6V305.6H426.3V303.6Z" fill="#36364F"/>
<path d="M426.3 306.7H397.6V308.7H426.3V306.7Z" fill="#36364F"/>
<path d="M354 345.4H227C225.7 345.4 224.6 344.3 224.6 343V340.3C224.6 339 225.7 337.9 227 337.9H354C355.3 337.9 356.4 339 356.4 340.3V343C356.4 344.3 355.3 345.4 354 345.4Z" fill="#FEFEFE"/>
<path d="M231.7 270.4V337.9" stroke="#FEFEFE" stroke-width="0.25" stroke-miterlimit="10"/>
<path d="M231.7 310.7H177.5L162.6 334H143.2" stroke="#FEFEFE" stroke-width="0.25" stroke-miterlimit="10"/>
<path d="M172.2 280.5H169.9C168.7 280.5 167.8 279.6 167.8 278.4V257C167.8 255.8 168.7 254.9 169.9 254.9H172.2C173.4 254.9 174.3 255.8 174.3 257V278.4C174.3 279.6 173.4 280.5 172.2 280.5Z" fill="#FEFEFE"/>
<path d="M175.4 232.3H166.9C164.6 232.3 162.7 234.2 162.7 236.5V262.3C162.7 264.6 164.6 266.5 166.9 266.5H167.8" stroke="#A3D5E6" stroke-miterlimit="10"/>
<path d="M439.6 235.3H171.4C171.4 233.1 172 231.1 173 229.3C175.1 225.7 179 223.3 183.4 223.3H427.5C430.8 223.3 433.8 224.7 436 226.8C436.7 227.5 437.4 228.4 437.9 229.3C439 231 439.6 233.1 439.6 235.3Z" fill="#FEFEFE"/>
<path opacity="0.3" d="M439.6 235.3H171.4C171.4 233.1 172 231.1 173 229.3H438C439 231 439.6 233.1 439.6 235.3Z" fill="#C33E5D"/>
<path d="M433.6 235.3H426.4V270.4H433.6V235.3Z" fill="#FEFEFE"/>
<path d="M356.9 235.3H349.7V270.4H356.9V235.3Z" fill="#FEFEFE"/>
<path d="M353.3 270.4V337.9" stroke="#FEFEFE" stroke-width="0.25" stroke-miterlimit="10"/>
<path d="M449.6 345.4H426C424.7 345.4 423.6 344.3 423.6 343V340.3C423.6 339 424.7 337.9 426 337.9H449.7C451 337.9 452.1 339 452.1 340.3V343C452 344.3 451 345.4 449.6 345.4Z" fill="#FEFEFE"/>
<path d="M165.9 345.4H142.2C140.9 345.4 139.8 344.3 139.8 343V340.3C139.8 339 140.9 337.9 142.2 337.9H165.9C167.2 337.9 168.3 339 168.3 340.3V343C168.4 344.3 167.3 345.4 165.9 345.4Z" fill="#FEFEFE"/>
<path d="M213.9 219.1H391.5V198.7C391.5 190.9 385.2 184.6 377.4 184.6H248.4C229.3 184.6 213.9 200.1 213.9 219.1Z" fill="#36364F"/>
<path d="M399.1 219.1H209.1C208.5 219.1 208 218.6 208 218V216.8C208 216.2 208.5 215.7 209.1 215.7H399.2C399.8 215.7 400.3 216.2 400.3 216.8V218C400.2 218.6 399.7 219.1 399.1 219.1Z" fill="#FEFEFE"/>
<path d="M238.6 209.5V223.2H235.2V209.5C235.2 208.6 236 207.8 236.9 207.8C237.9 207.8 238.6 208.6 238.6 209.5Z" fill="#FEFEFE"/>
<path d="M368.5 209.5V223.2H365.1V209.5C365.1 208.6 365.9 207.8 366.8 207.8C367.7 207.8 368.5 208.6 368.5 209.5Z" fill="#FEFEFE"/>
<path d="M217.1 204.4H362V184.6" stroke="#FEFEFE" stroke-width="0.25" stroke-miterlimit="10"/>
<path d="M468.6 326.1H448.3V277H468.6C470.5 277 472 278.5 472 280.4V322.7C472 324.5 470.4 326.1 468.6 326.1Z" fill="#36364F"/>
<g opacity="0.2">
<g opacity="0.2">
<path opacity="0.2" d="M466.9 277H466.5V326.1H466.9V277Z" fill="#FEFEFE"/>
</g>
<g opacity="0.2">
<path opacity="0.2" d="M451.3 277H450.9V326.1H451.3V277Z" fill="#FEFEFE"/>
</g>
<g opacity="0.2">
<path opacity="0.2" d="M454.4 277H454V326.1H454.4V277Z" fill="#FEFEFE"/>
</g>
<g opacity="0.2">
<path opacity="0.2" d="M457.5 277H457.1V326.1H457.5V277Z" fill="#FEFEFE"/>
</g>
<g opacity="0.2">
<path opacity="0.2" d="M460.6 277H460.2V326.1H460.6V277Z" fill="#FEFEFE"/>
</g>
<g opacity="0.2">
<path opacity="0.2" d="M463.7 277H463.3V326.1H463.7V277Z" fill="#FEFEFE"/>
</g>
</g>
<path d="M274.3 378.4C271 378.4 268.3 380.2 268.3 382.3C268.3 384.5 271 386.2 274.3 386.2H304.8V378.3H274.3V378.4Z" fill="#29293D"/>
<path d="M360.2 326.4H328.3V307.4C328.3 303.3 331.6 299.9 335.8 299.9H352.8C356.9 299.9 360.3 303.2 360.3 307.4V326.4H360.2ZM332.4 322.2H356V307.4C356 305.6 354.5 304.1 352.7 304.1H335.7C333.9 304.1 332.4 305.6 332.4 307.4V322.2Z" fill="#36364F"/>
<path d="M392.2 323V378.4C392.2 382.7 388.7 386.2 384.4 386.2H304C299.7 386.2 296.2 382.7 296.2 378.4V323C296.2 318.7 299.7 315.2 304 315.2H384.4C388.7 315.2 392.2 318.7 392.2 323Z" fill="#FFD550"/>
<path opacity="0.2" d="M392.2 378.5C392.2 382.8 388.7 386.3 384.4 386.3H304C299.7 386.3 296.2 382.8 296.2 378.5V323C296.2 355.4 354 378.5 392.2 378.5Z" fill="#AF3152"/>
<path d="M296.2 329.6H392.2" stroke="white" stroke-width="0.5" stroke-miterlimit="10"/>
<path d="M296.2 371.8H392.2" stroke="white" stroke-width="0.5" stroke-miterlimit="10"/>
<path d="M320.7 346.6H312.9C312.1 346.6 311.4 345.9 311.4 345.1V315.2H322.2V345.1C322.2 345.9 321.5 346.6 320.7 346.6Z" fill="white"/>
<path d="M375.6 346.6H367.8C367 346.6 366.3 345.9 366.3 345.1V315.2H377.1V345.1C377.1 345.9 376.4 346.6 375.6 346.6Z" fill="white"/>
<path d="M318.9 340.9C318.9 342.1 317.9 343 316.8 343C315.6 343 314.7 342 314.7 340.9C314.7 339.7 315.7 338.8 316.8 338.8C318 338.7 318.9 339.7 318.9 340.9Z" fill="#36364F"/>
<path d="M373.8 340.9C373.8 342.1 372.8 343 371.7 343C370.5 343 369.6 342 369.6 340.9C369.6 339.7 370.6 338.8 371.7 338.8C372.8 338.7 373.8 339.7 373.8 340.9Z" fill="#36364F"/>
<path d="M279.5 304.4C274.2 337.5 268.6 355.2 265 364C263.1 368.5 258.5 371.3 253.6 370.8L251.6 370.6C246.7 370.1 242.7 366.5 241.8 361.7C240 352.4 237.9 333.8 239.3 300.4C241 256.4 258.8 225.4 265.7 214.8C266.1 214.2 266.7 213.8 267.4 213.7C267.9 213.6 268.5 213.6 268.9 213.9C269.5 214.1 270 214.6 270.3 215.4C275.2 227 286.4 260.9 279.5 304.4Z" fill="white"/>
<path d="M269 213.9L253.5 370.9L252 370.7L267.5 213.7C268 213.6 268.5 213.7 269 213.9Z" fill="#A3D5E6"/>
<path d="M467 316.6L395.9 381.1" stroke="#FEFEFE" stroke-width="0.5" stroke-miterlimit="10"/>
<path d="M646.1 316.6L717.2 381.1" stroke="#FEFEFE" stroke-width="0.5" stroke-miterlimit="10"/>
<path d="M651 311.2L648.3 321.8L633.2 380.8H478.5L463.4 321.8L460.7 311.2C460.7 311.2 531.5 266 555.9 227.3C580.2 266 651 311.2 651 311.2Z" fill="#FFD550"/>
<path d="M648.3 321.8L643.7 339.6L633.1 380.9H478.5L463.4 321.9C476.6 313.8 534.3 276.9 555.9 242.8C555.9 242.9 556 242.9 556 243C577.5 276.9 634.3 313.3 648.1 321.7C648.1 321.7 648.2 321.7 648.3 321.8Z" fill="#FFC152"/>
<path opacity="0.6" d="M648.3 321.9L643.8 339.6C565 322.8 555.9 242.8 555.9 242.8L556 242.9C577.5 276.8 634.3 313.2 648.1 321.6L648.3 321.9Z" fill="#E5A338"/>
<path opacity="0.4" d="M555.8 262.1L503.4 380.8H555.8H608.2L555.8 262.1Z" fill="#E5A338"/>
<path d="M555.8 281.4V380.8H533.8L555.8 281.4Z" fill="#36364F"/>
<path d="M436.7 378.8C433.4 378.8 430.7 380.6 430.7 382.8C430.7 385 433.4 386.7 436.7 386.7H467.2V378.8H436.7Z" fill="#29293D"/>
<path d="M457.7 382.6C448.7 376.7 444.7 366 446.9 356C447.5 353.1 448.7 350.3 450.4 347.7C452.1 345.1 454.2 342.9 456.6 341.1C460.3 338.4 464.7 336.8 469.3 336.3C469.3 336.3 469.3 336.3 469.4 336.3C474.8 335.8 480.4 337.1 485.3 340.3C494.3 346.2 498.3 356.8 496.1 366.6C495.7 368.4 495.1 370.2 494.3 371.9C493.8 373 493.2 374.1 492.5 375.1C491.8 376.1 491.1 377.1 490.3 378C482.2 387.4 468.3 389.5 457.7 382.6Z" fill="#FEFEFE"/>
<path d="M490.4 378.2C490.2 377.7 489.9 377.2 489.7 376.6L492.7 372C493.3 372 493.9 372 494.4 372C493.9 373.1 493.3 374.2 492.6 375.2C491.9 376.3 491.2 377.3 490.4 378.2Z" fill="#A3D5E6"/>
<path d="M447.7 369.6C449.4 374.7 452.9 379.4 457.8 382.6C466.8 388.5 478.1 387.9 486.3 382L488.2 375.9C462.8 397.5 448.5 371.1 447.7 369.6Z" fill="#C33E5D"/>
<path d="M469.4 336.4C474.8 335.9 480.4 337.2 485.3 340.4C494.3 346.3 498.3 356.9 496.1 366.7L491.2 370.9C501.1 339.1 471.1 336.5 469.4 336.4Z" fill="#C33E5D"/>
<path d="M446.9 356C447.5 353.1 448.7 350.3 450.4 347.7C452.1 345.1 454.2 342.9 456.6 341.1C465.1 341.8 480.8 346.6 490.3 370.5L487.3 375.1C461.6 376 451 363.6 446.9 356Z" fill="#A3D5E6"/>
<path d="M484.1 380C482.7 379.1 483.7 375.1 486.3 371.1C488.9 367.1 492.2 364.6 493.6 365.6C495 366.5 494 370.5 491.4 374.5C488.8 378.5 485.5 380.9 484.1 380Z" fill="#FEFEFE"/>
</g>
<defs>
<clipPath id="clip0_6_6375">
<rect width="751" height="440" fill="white"/>
</clipPath>
</defs>
</svg>
